<?xml version="1.0" standalone="no"?>
<!DOCTYPE svg PUBLIC "-//W3C//DTD SVG 1.1//EN" "http://www.w3.org/Graphics/SVG/1.1/DTD/svg11.dtd" >
<svg xmlns="http://www.w3.org/2000/svg">
<metadata>Generated by IcoMoon</metadata>
<defs>
<font id="icomoon" horiz-adv-x="1024">
<font-face units-per-em="1024" ascent="960" descent="-64" />
<missing-glyph horiz-adv-x="1024" />
<glyph unicode="&#x20;" horiz-adv-x="512" d="" />
<glyph unicode="&#xe900;" glyph-name="icon-141" d="M958.433 456.566l-1.546 6.426-848.072 161.526-3.676-6.129c-1.915-3.195-46.689-79.232-26.803-166.492l1.495-6.548 843.643-158.116 3.779 3.476c2.376 2.181 57.882 54.804 31.181 165.857zM916.7 309.335l-819.753 153.636c-11.858 63.063 13.112 120.233 22.436 138.68l820.603-156.288c17.234-80.287-12.79-123.766-23.286-136.028z" />
<glyph unicode="&#xe901;" glyph-name="icon-142" d="M954.348 527.734l-248.366 43.909-19.681-17.321 244.347-43.192-9.928-56.658-289.654 51.2-14.761-12.989 301.763-53.34-14.382-82.028c-18.294-103.506-70.702-103.188-118.38-94.761l-358.4 63.355-19.671-17.321 374.513-66.207c55.276-9.764 121.385-5.944 142.126 111.375l30.474 173.978zM330.117 343.020l-156.129 27.597c-0.292 0.056-29.148 5.443-47.964 33.439-16.773 24.965-20.454 59.965-10.911 104.161l14.285 70.538 390.129-68.961 14.756 12.995-401.838 71.025 11.418 56.397 445.66-78.776 19.671 17.321-481.444 85.1-32.681-161.444c-10.737-49.715-6.036-90.020 13.952-119.782 23.619-35.144 59.863-41.912 61.394-42.179l140.032-24.755 19.671 17.326zM866.818 750.839l-703.715-619.7-13.539 15.374 703.715 619.7 13.539-15.374z" />
<glyph unicode="&#xe902;" glyph-name="icon-143" d="M958.433 456.566l-1.546 6.426-848.072 161.526-3.676-6.129c-1.915-3.195-46.689-79.232-26.803-166.492l1.495-6.548 843.643-158.116 3.779 3.476c2.376 2.181 57.882 54.804 31.181 165.857zM916.7 309.335l-819.753 153.636c-11.858 63.063 13.112 120.233 22.436 138.68l820.603-156.288c17.234-80.287-12.79-123.766-23.286-136.028z" />
<glyph unicode="&#xe903;" glyph-name="icon-144" d="M961.295 453.837l-1.812 5.898-850.78 162.319-3.722-5.939c-49.439-79.027-31.309-157.768-30.515-161.080l1.546-6.431 850.744-162.319 3.814 5.299c55.834 77.553 31.77 158.833 30.725 162.253zM943.14 441.999c2.14-9.974 5.509-31.928 2.048-58.962l-848.092 161.812c4.137 17.234 10.87 35.794 21.663 54.436l824.381-157.286zM917.637 308.874l-824.412 157.297c-1.556 10.173-3.681 31.754 0.067 58.557l848.143-161.818c-4.275-17.26-11.607-35.738-23.798-54.036z" />
<glyph unicode="&#xe904;" glyph-name="icon-145" d="M954.47 527.104l-826.394 147.297-32.911-161.398c-10.808-49.7-6.17-90.004 13.778-119.798 23.567-35.18 59.802-41.994 61.332-42.266l611.164-108.938c55.26-9.851 121.37-6.118 142.28 111.176l30.751 173.926zM930.744 510.531l-10.010-56.643-788.081 140.467 11.5 56.381 786.591-140.206zM785.044 262.159l-611.164 108.938c-0.297 0.051-29.143 5.478-47.913 33.505-16.737 24.991-20.367 59.996-10.762 104.177l14.382 70.518 788.475-140.539-14.495-82.012c-18.447-103.47-70.851-103.081-118.523-94.587z" />
<glyph unicode="&#xe905;" glyph-name="icon-146" d="M958.433 456.566l-1.546 6.426-848.072 161.526-3.676-6.129c-1.915-3.195-46.689-79.232-26.803-166.492l1.495-6.548 843.643-158.116 3.779 3.476c2.376 2.181 57.882 54.804 31.181 165.857zM916.7 309.335l-819.753 153.636c-11.858 63.063 13.112 120.233 22.436 138.68l820.603-156.288c17.234-80.287-12.79-123.766-23.286-136.028z" />
<glyph unicode="&#xe906;" glyph-name="icon-147" d="M961.295 453.837l-1.812 5.898-850.78 162.319-3.722-5.939c-49.439-79.027-31.309-157.768-30.515-161.080l1.546-6.431 850.744-162.319 3.814 5.299c55.834 77.553 31.77 158.833 30.725 162.253zM943.14 441.999c2.14-9.974 5.509-31.928 2.048-58.962l-848.092 161.812c4.137 17.234 10.87 35.794 21.663 54.436l824.381-157.286zM917.637 308.874l-824.412 157.297c-1.556 10.173-3.681 31.754 0.067 58.557l848.143-161.818c-4.275-17.26-11.607-35.738-23.798-54.036z" />
<glyph unicode="&#xe907;" glyph-name="icon-148" d="M954.47 527.104l-826.394 147.297-32.911-161.398c-10.808-49.7-6.17-90.004 13.778-119.798 23.567-35.18 59.802-41.994 61.332-42.266l611.164-108.938c55.26-9.851 121.37-6.118 142.28 111.176l30.751 173.926zM930.744 510.531l-10.010-56.643-788.081 140.467 11.5 56.381 786.591-140.206zM785.044 262.159l-611.164 108.938c-0.297 0.051-29.143 5.478-47.913 33.505-16.737 24.991-20.367 59.996-10.762 104.177l14.382 70.518 788.475-140.539-14.495-82.012c-18.447-103.47-70.851-103.081-118.523-94.587z" />
<glyph unicode="&#xe908;" glyph-name="icon-138" d="M775.173 335.841c-131.666 187.684-61.588 433.326-60.872 435.784l2.575 8.73-222.28 53.683-3.302-2.601c-64.328-50.642-132.234-48.727-132.905-48.681l-0.343-8.658-0.353-8.658c2.842-0.108 66.284-2.079 131.625 43.054 3.886-62.321 5.857-307.82-176.942-529.874l-1.976-2.396v-160.486h17.326v154.281c110.879 135.762 153.293 278.953 169.344 375.424 13.532 81.316 11.264 142.761 9.349 167.91l188.959-45.64c-11.361-46.31-56.161-265.81 64.026-439.572v-212.398h17.326v217.856l-1.556 2.243zM563.067 229.806h17.326v-114.058h-17.326v114.058zM389.361 199.485c-15.672 0-28.421-12.744-28.421-28.421s12.744-28.421 28.421-28.421c15.677 0 28.421 12.744 28.421 28.421s-12.754 28.421-28.421 28.421zM389.361 159.969c-6.124 0-11.095 4.982-11.095 11.095 0 6.124 4.977 11.1 11.095 11.1s11.095-4.977 11.095-11.1c0-6.113-4.982-11.095-11.095-11.095zM479.324 461.527h179.026v54.861h-179.026v-54.861zM496.645 499.062h144.379v-20.214h-144.379v20.214z" />
<glyph unicode="&#xe909;" glyph-name="icon-139" d="M817.347 310.518c-155.638 221.865-72.801 512.236-71.946 515.144l3.036 10.322-262.758 63.457-3.907-3.077c-76.042-59.863-156.314-57.6-157.102-57.544l-0.404-10.235-0.42-10.235c3.359-0.128 78.351-2.458 155.592 50.893 4.593-73.667 6.922-363.873-209.162-626.36l-2.335-2.836v-189.706h20.48v182.369c131.067 160.486 181.207 329.754 200.182 443.791 15.995 96.128 13.317 168.76 11.054 198.487l223.37-53.949c-13.425-54.748-66.386-314.214 75.684-519.624v-251.080h20.48v257.531l-1.843 2.652zM566.615 185.175h20.48v-134.83h-20.48v134.83zM361.277 149.335c-18.524 0-33.597-15.068-33.597-33.597s15.068-33.597 33.597-33.597 33.597 15.068 33.597 33.597-15.073 33.597-33.597 33.597zM361.277 102.625c-7.235 0-13.117 5.883-13.117 13.117s5.883 13.117 13.117 13.117 13.117-5.883 13.117-13.117-5.888-13.117-13.117-13.117zM467.625 459.095h211.625v64.85h-211.625v-64.85zM488.105 503.465h170.665v-23.895h-170.665v23.895z" />
<glyph unicode="&#xe90a;" glyph-name="icon-140" d="M817.347 310.518c-155.638 221.865-72.801 512.236-71.946 515.144l3.036 10.322-262.758 63.457-3.907-3.077c-76.042-59.863-156.314-57.6-157.102-57.544l-0.404-10.235-0.42-10.235c3.359-0.128 78.351-2.458 155.592 50.893 4.593-73.667 6.922-363.873-209.162-626.36l-2.335-2.836v-189.706h20.48v182.369c131.067 160.486 181.207 329.754 200.182 443.791 15.995 96.128 13.317 168.76 11.054 198.487l223.37-53.949c-13.425-54.748-66.386-314.214 75.684-519.624v-251.080h20.48v257.531l-1.843 2.652zM566.615 185.175h20.48v-134.83h-20.48v134.83zM361.277 149.335c-18.524 0-33.597-15.068-33.597-33.597s15.068-33.597 33.597-33.597 33.597 15.068 33.597 33.597-15.073 33.597-33.597 33.597zM361.277 102.625c-7.235 0-13.117 5.883-13.117 13.117s5.883 13.117 13.117 13.117 13.117-5.883 13.117-13.117-5.888-13.117-13.117-13.117z" />
<glyph unicode="&#xe90b;" glyph-name="icon-134" d="M904.136 653.773l-28.483-545.715c-36.413-7.444-72.591-13.348-108.237-17.966v386.319h-20.48v-388.849c-85.868-9.994-168.253-12.585-243.036-11.003v578.99h-20.48v-578.458c-73.682 2.335-139.244 8.591-192.497 15.508l-13.558 400.338-20.47-0.696 13.44-396.851c-59.049 8.335-100.060 16.988-115.932 20.572l-31.913 549.427-20.444-1.188 32.799-564.588 7.301-1.823c2.458-0.614 172.288-42.117 402.299-42.117 105.206 0 223.012 8.684 343.132 33.935l7.711 1.618 29.302 561.48-20.454 1.065zM568.212 477.727c18.708 0 33.935 15.222 33.935 33.93s-15.227 33.93-33.935 33.93-33.93-15.222-33.93-33.93 15.217-33.93 33.93-33.93zM568.212 525.112c7.419 0 13.455-6.036 13.455-13.45s-6.036-13.45-13.455-13.45c-7.414 0-13.45 6.036-13.45 13.45s6.031 13.45 13.45 13.45zM568.212 283.172c18.708 0 33.935 15.222 33.935 33.93s-15.227 33.93-33.935 33.93-33.93-15.222-33.93-33.93 15.217-33.93 33.93-33.93zM568.212 330.552c7.419 0 13.455-6.036 13.455-13.45s-6.036-13.45-13.455-13.45c-7.414 0-13.45 6.036-13.45 13.45s6.031 13.45 13.45 13.45z" />
<glyph unicode="&#xe90c;" glyph-name="icon-135" d="M904.136 653.773l-28.483-545.715c-36.413-7.444-72.591-13.348-108.237-17.966v386.319h-20.48v-388.849c-85.868-9.994-168.253-12.585-243.036-11.003v578.99h-20.48v-578.458c-73.682 2.335-139.244 8.591-192.497 15.508l-13.558 400.338-20.47-0.696 13.44-396.851c-59.049 8.335-100.060 16.988-115.932 20.572l-31.913 549.427-20.444-1.188 32.799-564.588 7.301-1.823c2.458-0.614 172.288-42.117 402.299-42.117 105.206 0 223.012 8.684 343.132 33.935l7.711 1.618 29.302 561.48-20.454 1.065zM568.212 477.727c18.708 0 33.935 15.222 33.935 33.93s-15.227 33.93-33.935 33.93-33.93-15.222-33.93-33.93 15.217-33.93 33.93-33.93zM568.212 525.112c7.419 0 13.455-6.036 13.455-13.45s-6.036-13.45-13.455-13.45c-7.414 0-13.45 6.036-13.45 13.45s6.031 13.45 13.45 13.45zM568.212 283.172c18.708 0 33.935 15.222 33.935 33.93s-15.227 33.93-33.935 33.93-33.93-15.222-33.93-33.93 15.217-33.93 33.93-33.93zM568.212 330.552c7.419 0 13.455-6.036 13.455-13.45s-6.036-13.45-13.455-13.45c-7.414 0-13.45 6.036-13.45 13.45s6.031 13.45 13.45 13.45z" />
<glyph unicode="&#xe90d;" glyph-name="icon-136" d="M902.84 651.668l-30.29-536.832c-34.765-8.156-72.028-13.983-107.894-18.166l6.758 381.865-20.48 0.364-6.81-384.461c-74.066-7.506-138.563-8.223-156.867-8.264l-83.794 117.637v452.403h-20.48v-452.157l-91.868-117.652c-38.144 1.7-72.212 4.593-102.006 8.018l-12.641 394.87-20.47-0.655 12.539-391.68c-63.027 8.264-103.578 18.437-118.748 22.63l-28.631 547.4-20.449-1.070 29.384-561.72 6.728-2.161c3.748-1.203 93.67-29.517 258.703-36.321l5.258-0.22 92.068 117.919 83.809-117.652 5.212-0.056c1.756-0.015 171.781-1.347 302.93 31.022l7.347 1.812 31.145 551.982-20.454 1.147zM568.212 477.727c18.708 0 33.94 15.222 33.94 33.93s-15.232 33.93-33.94 33.93c-18.703 0-33.93-15.222-33.93-33.93s15.217-33.93 33.93-33.93zM568.212 525.112c7.419 0 13.46-6.036 13.46-13.45s-6.042-13.45-13.46-13.45c-7.409 0-13.45 6.036-13.45 13.45s6.026 13.45 13.45 13.45zM568.212 283.172c18.708 0 33.94 15.227 33.94 33.93 0 18.708-15.232 33.93-33.94 33.93-18.703 0-33.93-15.222-33.93-33.93s15.217-33.93 33.93-33.93zM568.212 330.552c7.419 0 13.46-6.036 13.46-13.45 0-7.409-6.042-13.45-13.46-13.45-7.409 0-13.45 6.042-13.45 13.45 0 7.414 6.026 13.45 13.45 13.45z" />
<glyph unicode="&#xe90e;" glyph-name="icon-137" d="M901.13 654.935l-22.758-541.184c-40.32-15.672-77.926-26.68-112.845-33.224l5.033 394.22-20.48 0.261-5.079-397.839c-61.558-8.602-114.033-2.196-156.703 19.492-60.109 30.546-81.94 83.302-87.194 98.647l4.070 461.67-20.48 0.179-4.004-454.216-0.829-3.41c-11.325-46.802-35.953-80.005-73.196-98.693-35.451-17.797-78.459-20.844-119.327-17.357l-9.58 404.439-20.475-0.486 9.518-401.669c-53.888 7.414-100.864 24.289-116.936 30.515l-26.143 546.396-20.454-0.978 26.757-559.37 5.903-2.519c6.932-2.954 171.080-71.885 279.885-17.295 34.877 17.49 60.068 45.716 75.156 84.111 12.82-25.569 38.748-63.027 87.629-88.003 33.5-17.121 72.218-25.672 115.948-25.672 57.416 0.005 123.453 14.751 197.56 44.206l6.164 2.452 23.322 554.476-20.465 0.85zM568.212 477.727c18.708 0 33.94 15.222 33.94 33.93s-15.232 33.93-33.94 33.93c-18.703 0-33.93-15.222-33.93-33.93s15.217-33.93 33.93-33.93zM568.212 525.112c7.419 0 13.46-6.036 13.46-13.45s-6.042-13.45-13.46-13.45c-7.409 0-13.45 6.036-13.45 13.45s6.026 13.45 13.45 13.45zM568.212 283.172c18.708 0 33.94 15.227 33.94 33.93 0 18.708-15.232 33.93-33.94 33.93-18.703 0-33.93-15.222-33.93-33.93s15.217-33.93 33.93-33.93zM568.212 330.552c7.419 0 13.46-6.036 13.46-13.45 0-7.409-6.042-13.45-13.46-13.45-7.409 0-13.45 6.042-13.45 13.45 0 7.414 6.026 13.45 13.45 13.45z" />
<glyph unicode="&#xe90f;" glyph-name="icon-129" d="M957.471 343.378c-136.54 156.221-29.814 480.819-28.718 484.081l3.548 10.588-243.512 58.824-3.901-3.046c-161.777-126.52-322.422-5.197-329.18 0.026l-3.876 2.995-91.325-21.688-3.83 1.464c-0.102-0.261-0.445-1.172-0.973-2.606l-150.943-35.855 3.21-10.445c55.772-181.586 37.565-305.475 12.477-377.431-27.090-77.67-67.804-113.183-68.193-113.51l-3.876-3.292 13.076-239.319 20.449 1.121-12.539 229.443c11.443 11.121 45.517 48.307 69.888 117.309 26.004 73.626 45.245 199.096-8.556 381.24l117.299 27.868c-7.276-23.296-16.952-59.392-20.122-95.032l-0.609-6.876 40.827-20.91-41.554-21.284 1.49-7.572c2.55-12.938 63.406-312.346 250.685-432.425v-172.324h20.48v167.588c237.696 112.323 298.757 430.213 299.351 433.439l1.418 7.716-44.483 21.233 44.37 22.185-1.28 7.491c-5.412 31.565-15.734 76.303-21.386 100.081l128.758-31.104c-18.063-58.993-94.367-339.057 33.408-490.312l-10.071-237.88 20.46-0.87 10.414 246.011-2.683 3.082zM679.444 864.538c-5.023-360.724-148.27-533.663-184.909-571.986-155.945 242.954-143.181 507.761-136.817 575.288 44.155-27.622 182.088-97.894 321.725-3.302zM249.759 695.916l63.263 32.404-64.051 32.809c4.291 37.949 15.944 76.344 22.39 95.56l66.243 15.734c-6.303-64.123-20.608-324.813 126.751-570.025-145.362 114.248-204.416 348.621-214.595 393.518zM777.062 758.38l-68.224-34.115 67.968-32.44c-9.999-45.041-69.228-277.473-245.484-388.593 18.939 23.373 44.124 59.167 69.391 109.133 44.677 88.366 97.674 239.544 99.369 460.713l54.753-13.225c4.065-16.829 15.626-65.469 22.226-101.473zM256 227.84h15.36v-133.12h-15.36v133.12zM761.175 227.84h15.36v-133.12h-15.36v133.12zM568.75 201.385c-18.115 0-32.855-14.74-32.855-32.855s14.74-32.85 32.855-32.85 32.85 14.735 32.85 32.85-14.735 32.855-32.85 32.855zM568.75 151.040c-9.646 0-17.495 7.844-17.495 17.49s7.849 17.495 17.495 17.495 17.49-7.849 17.49-17.495-7.844-17.49-17.49-17.49z" />
<glyph unicode="&#xe910;" glyph-name="icon-130" d="M957.471 343.378c-136.54 156.221-29.814 480.819-28.718 484.081l3.548 10.588-243.512 58.824-3.901-3.046c-161.777-126.52-322.422-5.197-329.18 0.026l-3.876 2.995-247.071-58.685 3.21-10.445c55.772-181.586 37.565-305.475 12.477-377.431-27.090-77.67-67.804-113.183-68.193-113.51l-3.876-3.292 13.076-239.319 20.449 1.121-12.539 229.443c11.443 11.121 45.517 48.307 69.888 117.309 26.004 73.626 45.245 199.096-8.556 381.24l206.899 49.152c-6.502-66.135-21.514-341.381 141.123-593.065v-184.643h20.48v173.757l0.312 0.271c2.079 1.807 51.507 45.343 101.197 143.621 44.677 88.366 97.674 239.544 99.369 460.713l205.87-49.731c-18.063-58.993-94.367-339.057 33.408-490.312l-10.071-237.88 20.46-0.87 10.414 246.011-2.688 3.077zM494.536 292.557c-155.945 242.949-143.181 507.756-136.817 575.283 44.155-27.622 182.083-97.889 321.725-3.297-5.023-360.73-148.27-533.668-184.909-571.986zM256 227.84h15.36v-133.12h-15.36v133.12zM761.175 227.84h15.36v-133.12h-15.36v133.12zM568.75 201.385c-18.115 0-32.855-14.74-32.855-32.855s14.74-32.85 32.855-32.85 32.85 14.735 32.85 32.85-14.735 32.855-32.85 32.855zM568.75 151.040c-9.646 0-17.495 7.844-17.495 17.49s7.849 17.495 17.495 17.495 17.49-7.849 17.49-17.495-7.844-17.49-17.49-17.49z" />
<glyph unicode="&#xe911;" glyph-name="icon-131" d="M957.471 343.378c-136.54 156.221-29.814 480.819-28.718 484.081l3.548 10.588-243.512 58.824-3.901-3.046c-161.777-126.52-322.422-5.197-329.18 0.026l-3.876 2.995-91.325-21.688-3.83 1.464c-0.102-0.261-0.445-1.172-0.973-2.606l-150.943-35.855 3.21-10.445c55.772-181.586 37.565-305.475 12.477-377.431-27.090-77.67-67.804-113.183-68.193-113.51l-3.876-3.292 13.076-239.319 20.449 1.121-12.539 229.443c11.443 11.121 45.517 48.307 69.888 117.309 26.004 73.626 45.245 199.096-8.556 381.24l117.299 27.868c-7.276-23.296-16.952-59.392-20.122-95.032l-0.609-6.876 40.827-20.91-41.554-21.284 1.49-7.572c2.55-12.938 63.406-312.346 250.685-432.425v-172.324h20.48v167.588c237.696 112.323 298.757 430.213 299.351 433.439l1.418 7.716-44.483 21.233 44.37 22.185-1.28 7.491c-5.412 31.565-15.734 76.303-21.386 100.081l128.758-31.104c-18.063-58.993-94.367-339.057 33.408-490.312l-10.071-237.88 20.46-0.87 10.414 246.011-2.683 3.082zM679.444 864.538c-5.023-360.724-148.27-533.663-184.909-571.986-155.945 242.954-143.181 507.761-136.817 575.288 44.155-27.622 182.088-97.894 321.725-3.302zM249.759 695.916l63.263 32.404-64.051 32.809c4.291 37.949 15.944 76.344 22.39 95.56l66.243 15.734c-6.303-64.123-20.608-324.813 126.751-570.025-145.362 114.248-204.416 348.621-214.595 393.518zM777.062 758.38l-68.224-34.115 67.968-32.44c-9.999-45.041-69.228-277.473-245.484-388.593 18.939 23.373 44.124 59.167 69.391 109.133 44.677 88.366 97.674 239.544 99.369 460.713l54.753-13.225c4.065-16.829 15.626-65.469 22.226-101.473zM256 227.84h15.36v-133.12h-15.36v133.12zM761.175 227.84h15.36v-133.12h-15.36v133.12zM568.75 201.385c-18.115 0-32.855-14.74-32.855-32.855s14.74-32.85 32.855-32.85 32.85 14.735 32.85 32.85-14.735 32.855-32.85 32.855zM568.75 151.040c-9.646 0-17.495 7.844-17.495 17.49s7.849 17.495 17.495 17.495 17.49-7.849 17.49-17.495-7.844-17.49-17.49-17.49z" />
<glyph unicode="&#xe912;" glyph-name="icon-132" d="M957.471 343.378c-136.54 156.221-29.814 480.819-28.718 484.081l3.548 10.588-243.512 58.824-3.901-3.046c-161.777-126.52-322.422-5.197-329.18 0.026l-3.876 2.995-247.071-58.685 3.21-10.445c55.772-181.586 37.565-305.475 12.477-377.431-27.090-77.67-67.804-113.183-68.193-113.51l-3.876-3.292 13.076-239.319 20.449 1.121-12.539 229.443c11.443 11.121 45.517 48.307 69.888 117.309 26.004 73.626 45.245 199.096-8.556 381.24l126.52 30.060c-5.289-21.135-14.024-58.015-17.572-84.347l-3.64 2.115c-4.675 2.452-12.355 3.523-18.58-1.526-9.513-7.721-9.846-24.248-1.106-55.235 2.601-11.725 67.512-294.81 262.4-452.132v-167.491h20.48v173.655c251.924 147.584 317.747 448.179 320.538 461.553 3.062 10.967 5.893 26.22-3.625 33.838-4.695 3.753-10.445 3.958-15.324 2.683-4.869 27.945-16.691 66.022-23.956 88.084l129.116-31.191c-18.063-58.993-94.367-339.057 33.408-490.312l-10.071-237.88 20.46-0.87 10.414 246.011-2.688 3.087zM679.444 864.538c-5.023-360.724-148.27-533.663-184.909-571.986-155.945 242.954-143.181 507.761-136.817 575.288 44.155-27.622 182.088-97.894 321.725-3.302zM279.716 858.67l57.887 13.752c-2.084-21.202-5.033-63.903-2.739-120.428l-39.398-15.432-36.506 21.207c2.458 28.247 16.118 82.903 20.756 100.9zM236.268 718.971l-0.159 0.645c-4.91 17.357-5.719 26.47-5.581 30.981l63.191-36.716 42.24 16.543c7.035-114.079 35.958-274.959 129.28-429.527-171.689 158.484-228.383 415.35-228.972 418.074zM799.928 735.13l-0.189-0.794c-0.538-2.755-52.081-252.708-250.102-407.004 15.555 21.745 33.29 49.864 51.072 85.028 34.376 67.988 73.687 173.169 90.767 318.787l52.71-18.724 57.789 32.113c-0.282-2.176-0.87-5.228-2.048-9.405zM781.594 756.644l-39.27-21.821-48.589 17.265c3.763 37.724 6.016 78.039 6.344 120.991l53.243-12.861c5.816-17.029 23.885-71.624 28.273-103.572zM256 227.84h15.36v-133.12h-15.36v133.12zM761.175 227.84h15.36v-133.12h-15.36v133.12zM568.75 201.385c-18.115 0-32.855-14.74-32.855-32.855s14.74-32.85 32.855-32.85 32.85 14.735 32.85 32.85-14.735 32.855-32.85 32.855zM568.75 151.040c-9.646 0-17.495 7.844-17.495 17.49s7.849 17.495 17.495 17.495 17.49-7.849 17.49-17.495-7.844-17.49-17.49-17.49z" />
<glyph unicode="&#xe913;" glyph-name="icon-133" d="M957.471 343.378c-136.54 156.221-29.814 480.819-28.718 484.081l3.548 10.588-243.512 58.824-3.901-3.046c-161.777-126.52-322.422-5.197-329.18 0.026l-3.876 2.995-97.039-23.050-1.070 0.256c-0.026-0.108-0.072-0.312-0.128-0.538l-148.828-35.359 3.21-10.445c55.772-181.586 37.565-305.475 12.477-377.431-27.090-77.67-67.804-113.183-68.193-113.51l-3.876-3.292 13.076-239.319 20.449 1.121-12.539 229.443c11.443 11.121 45.517 48.307 69.888 117.309 26.004 73.626 45.245 199.096-8.556 381.24l118.651 28.186c-6.011-36.204-14.756-112.2-2.703-202.414 15.176-113.603 67.891-270.868 232.069-378.066v-176.256h20.48v173.757l0.312 0.271c0.287 0.251 1.495 1.316 3.451 3.18 190.152 93.087 255.514 249.912 276.654 366.080 17.398 95.58 8.827 178.022 3.026 215.127l123.305-29.788c-18.063-58.993-94.367-339.057 33.408-490.312l-10.071-237.88 20.46-0.87 10.414 246.011-2.688 3.082zM679.444 864.538c-5.023-360.724-148.27-533.663-184.909-571.986-155.945 242.954-143.181 507.761-136.817 575.288 44.155-27.622 182.088-97.894 321.725-3.302zM267.044 651.069c-12.795 94.961-1.398 175.457 4.060 205.558l66.493 15.795c-6.252-63.59-20.372-320.497 123.105-563.912-108.928 81.761-174.024 196.792-193.659 342.559zM759.347 640.973c-26.189-142.884-99.343-251.776-217.723-324.557 17.316 22.938 38.17 54.574 59.090 95.949 44.677 88.366 97.674 239.544 99.369 460.713l60.887-14.71c5.151-29.952 16.732-117.243-1.623-217.395zM256 227.84h15.36v-133.12h-15.36v133.12zM761.175 227.84h15.36v-133.12h-15.36v133.12zM568.75 201.385c-18.115 0-32.855-14.74-32.855-32.855s14.74-32.85 32.855-32.85 32.85 14.735 32.85 32.85-14.735 32.855-32.85 32.855zM568.75 151.040c-9.646 0-17.495 7.844-17.495 17.49s7.849 17.495 17.495 17.495 17.49-7.849 17.49-17.495-7.844-17.49-17.49-17.49z" />
<glyph unicode="&#xe914;" glyph-name="icon-122" d="M811.607 522.655c-0.891 1.382-88.059 140.452-27.331 342.502l3.021 10.045-148.531 40.73-4.198-4.065c-0.399-0.389-41.068-39.009-112.41-39.014-2.115 0-4.244 0.036-6.077 0.087-0.64 0.041-64.425 4.618-105.498 42.532l-4.342 4.009-135.194-42.081 1.951-9.139c0.502-2.34 48.773-235.264-52.526-340.634l-3.103-3.226 29.665-506.885 6.216-2.35c3.881-1.464 96.855-35.927 252.918-35.932 0.010 0 0.015 0 0.026 0 91.397 0 185.492 11.971 279.67 35.574l7.434 1.864 20.065 503.265-1.756 2.719zM632.591 884.531c5.243-230.067-98.079-357.284-126.904-388.178-88.97 108.339-95.299 322.524-94.858 392.591 45.128-32.333 101.356-36.28 104.264-36.46 56.776-1.766 96.773 18.186 117.499 32.046zM238.321 516.736c94.305 102.984 64.824 301.030 56.489 346.614l95.478 29.722c-1.034-68.649 3.425-296.709 102.216-412.861v-480.394c-52.378 0.712-97.234 5.437-133.166 11.172l-9.897 425.677-15.355-0.358 9.825-422.702c-39.342 7.066-65.905 14.92-77.23 18.606l-28.36 484.526zM773.437 32.84c-26.056-6.359-52.081-11.699-78.039-16.241l9.887 419.702-15.36 0.358-9.953-422.671c-56.259-9.057-112.108-13.804-166.984-14.167v474.726c13.916 12.943 148.214 145.362 139.837 416.323l108.918-29.891c-53.878-191.99 18.156-325.151 30.899-346.557l-19.205-481.582zM559.206 420.966c-14.74 0-26.732-11.991-26.732-26.732s11.991-26.732 26.732-26.732 26.732 11.991 26.732 26.732-11.991 26.732-26.732 26.732zM559.206 382.863c-6.272 0-11.372 5.1-11.372 11.372s5.1 11.372 11.372 11.372 11.372-5.1 11.372-11.372-5.105-11.372-11.372-11.372zM559.206 287.846c-14.74 0-26.732-11.991-26.732-26.732s11.991-26.732 26.732-26.732 26.732 11.991 26.732 26.732-11.991 26.732-26.732 26.732zM559.206 249.743c-6.272 0-11.372 5.1-11.372 11.372s5.1 11.372 11.372 11.372 11.372-5.1 11.372-11.372-5.105-11.372-11.372-11.372zM559.206 149.606c-14.74 0-26.732-11.991-26.732-26.732s11.991-26.732 26.732-26.732 26.732 11.991 26.732 26.732-11.991 26.732-26.732 26.732zM559.206 111.503c-6.272 0-11.372 5.1-11.372 11.372s5.1 11.372 11.372 11.372 11.372-5.1 11.372-11.372-5.105-11.372-11.372-11.372z" />
<glyph unicode="&#xe915;" glyph-name="icon-123" d="M811.607 522.655c-0.891 1.382-88.059 140.452-27.331 342.502l3.021 10.045-148.531 40.73-4.198-4.065c-0.399-0.389-41.068-39.009-112.41-39.014-2.115 0-4.244 0.036-6.077 0.087-0.64 0.041-64.425 4.618-105.498 42.532l-4.342 4.009-135.194-42.081 1.951-9.139c0.502-2.34 48.773-235.264-52.526-340.634l-3.103-3.226 29.665-506.885 6.216-2.35c3.881-1.464 96.855-35.927 252.918-35.932 0.010 0 0.015 0 0.026 0 91.397 0 185.492 11.971 279.67 35.574l7.434 1.864 20.065 503.265-1.756 2.719zM632.591 884.531c5.243-230.067-98.079-357.284-126.904-388.178-88.97 108.339-95.299 322.524-94.858 392.591 45.128-32.333 101.356-36.28 104.264-36.46 56.776-1.766 96.773 18.186 117.499 32.046zM238.321 516.736c94.305 102.984 64.824 301.030 56.489 346.614l95.478 29.722c-1.034-68.649 3.425-296.709 102.216-412.861v-480.394c-52.378 0.712-97.234 5.437-133.166 11.172l-9.897 425.677-15.355-0.358 9.825-422.702c-39.342 7.066-65.905 14.92-77.23 18.606l-28.36 484.526zM773.437 32.84c-26.056-6.359-52.081-11.699-78.039-16.241l9.887 419.702-15.36 0.358-9.953-422.671c-56.259-9.057-112.108-13.804-166.984-14.167v474.726c13.916 12.943 148.214 145.362 139.837 416.323l108.918-29.891c-53.878-191.99 18.156-325.151 30.899-346.557l-19.205-481.582zM559.206 420.966c-14.74 0-26.732-11.991-26.732-26.732s11.991-26.732 26.732-26.732 26.732 11.991 26.732 26.732-11.991 26.732-26.732 26.732zM559.206 382.863c-6.272 0-11.372 5.1-11.372 11.372s5.1 11.372 11.372 11.372 11.372-5.1 11.372-11.372-5.105-11.372-11.372-11.372zM559.206 287.846c-14.74 0-26.732-11.991-26.732-26.732s11.991-26.732 26.732-26.732 26.732 11.991 26.732 26.732-11.991 26.732-26.732 26.732zM559.206 249.743c-6.272 0-11.372 5.1-11.372 11.372s5.1 11.372 11.372 11.372 11.372-5.1 11.372-11.372-5.105-11.372-11.372-11.372zM559.206 149.606c-14.74 0-26.732-11.991-26.732-26.732s11.991-26.732 26.732-26.732 26.732 11.991 26.732 26.732-11.991 26.732-26.732 26.732zM559.206 111.503c-6.272 0-11.372 5.1-11.372 11.372s5.1 11.372 11.372 11.372 11.372-5.1 11.372-11.372-5.105-11.372-11.372-11.372z" />
<glyph unicode="&#xe916;" glyph-name="icon-124" d="M811.607 522.655c-0.891 1.382-88.059 140.452-27.331 342.502l3.021 10.045-148.531 40.73-4.198-4.065c-0.399-0.389-41.068-39.009-112.41-39.014-2.115 0-4.244 0.036-6.077 0.087-0.64 0.041-64.425 4.618-105.498 42.532l-4.342 4.009-135.194-42.081 1.951-9.139c0.502-2.34 48.773-235.264-52.526-340.634l-3.103-3.226 29.665-506.885 6.216-2.35c3.881-1.464 96.855-35.927 252.918-35.932 0.010 0 0.015 0 0.026 0 91.397 0 185.492 11.971 279.67 35.574l7.434 1.864 20.065 503.265-1.756 2.719zM632.591 884.531c5.243-230.067-98.079-357.284-126.904-388.178-88.97 108.339-95.299 322.524-94.858 392.591 45.128-32.333 101.356-36.28 104.264-36.46 56.776-1.766 96.773 18.186 117.499 32.046zM238.321 516.736c94.305 102.984 64.824 301.030 56.489 346.614l95.478 29.722c-1.034-68.649 3.425-296.709 102.216-412.861v-480.394c-52.378 0.712-97.234 5.437-133.166 11.172l-9.897 425.677-15.355-0.358 9.825-422.702c-39.342 7.066-65.905 14.92-77.23 18.606l-28.36 484.526zM773.437 32.84c-26.056-6.359-52.081-11.699-78.039-16.241l9.887 419.702-15.36 0.358-9.953-422.671c-56.259-9.057-112.108-13.804-166.984-14.167v474.726c13.916 12.943 148.214 145.362 139.837 416.323l108.918-29.891c-53.878-191.99 18.156-325.151 30.899-346.557l-19.205-481.582zM559.206 108.646c-14.74 0-26.732-11.991-26.732-26.732s11.991-26.732 26.732-26.732 26.732 11.991 26.732 26.732-11.991 26.732-26.732 26.732zM559.206 70.543c-6.272 0-11.372 5.1-11.372 11.372s5.1 11.372 11.372 11.372 11.372-5.1 11.372-11.372-5.105-11.372-11.372-11.372zM559.206 211.046c-14.74 0-26.732-11.991-26.732-26.732s11.991-26.732 26.732-26.732 26.732 11.991 26.732 26.732-11.991 26.732-26.732 26.732zM559.206 172.943c-6.272 0-11.372 5.1-11.372 11.372s5.1 11.372 11.372 11.372 11.372-5.1 11.372-11.372-5.105-11.372-11.372-11.372zM559.206 436.326c-14.74 0-26.732-11.991-26.732-26.732s11.991-26.732 26.732-26.732 26.732 11.991 26.732 26.732-11.991 26.732-26.732 26.732zM559.206 398.223c-6.272 0-11.372 5.1-11.372 11.372s5.1 11.372 11.372 11.372 11.372-5.1 11.372-11.372-5.105-11.372-11.372-11.372zM559.206 323.686c-14.74 0-26.732-11.991-26.732-26.732s11.991-26.732 26.732-26.732 26.732 11.991 26.732 26.732-11.991 26.732-26.732 26.732zM559.206 285.583c-6.272 0-11.372 5.1-11.372 11.372s5.1 11.372 11.372 11.372 11.372-5.1 11.372-11.372-5.105-11.372-11.372-11.372z" />
<glyph unicode="&#xe917;" glyph-name="icon-125" d="M811.607 522.655c-0.891 1.382-88.059 140.452-27.331 342.502l3.021 10.045-148.531 40.73-4.198-4.065c-0.399-0.389-41.068-39.009-112.41-39.014-2.115 0-4.244 0.036-6.077 0.087-0.64 0.041-64.425 4.618-105.498 42.532l-4.342 4.009-135.194-42.081 1.951-9.139c0.502-2.34 48.773-235.264-52.526-340.634l-3.103-3.226 29.665-506.885 6.216-2.35c3.881-1.464 96.855-35.927 252.918-35.932 0.010 0 0.015 0 0.026 0 91.397 0 185.492 11.971 279.67 35.574l7.434 1.864 20.065 503.265-1.756 2.719zM632.591 884.531c5.243-230.067-98.079-357.284-126.904-388.178-88.97 108.339-95.299 322.524-94.858 392.591 45.128-32.333 101.356-36.28 104.264-36.46 56.776-1.766 96.773 18.186 117.499 32.046zM238.321 516.736c94.305 102.984 64.824 301.030 56.489 346.614l95.478 29.722c-1.034-68.649 3.425-296.709 102.216-412.861v-480.394c-52.378 0.712-97.234 5.437-133.166 11.172l-9.897 425.677-15.355-0.358 9.825-422.702c-39.342 7.066-65.905 14.92-77.23 18.606l-28.36 484.526zM773.437 32.84c-26.056-6.359-52.081-11.699-78.039-16.241l9.887 419.702-15.36 0.358-9.953-422.671c-56.259-9.057-112.108-13.804-166.984-14.167v474.726c13.916 12.943 148.214 145.362 139.837 416.323l108.918-29.891c-53.878-191.99 18.156-325.151 30.899-346.557l-19.205-481.582zM559.206 88.166c-14.74 0-26.732-11.991-26.732-26.732s11.991-26.732 26.732-26.732 26.732 11.991 26.732 26.732-11.991 26.732-26.732 26.732zM559.206 50.063c-6.272 0-11.372 5.1-11.372 11.372s5.1 11.372 11.372 11.372 11.372-5.1 11.372-11.372-5.105-11.372-11.372-11.372zM559.206 180.326c-14.74 0-26.732-11.991-26.732-26.732s11.991-26.732 26.732-26.732 26.732 11.991 26.732 26.732-11.991 26.732-26.732 26.732zM559.206 142.223c-6.272 0-11.372 5.1-11.372 11.372s5.1 11.372 11.372 11.372 11.372-5.1 11.372-11.372-5.105-11.372-11.372-11.372zM559.206 467.046c-14.74 0-26.732-11.991-26.732-26.732s11.991-26.732 26.732-26.732 26.732 11.991 26.732 26.732-11.991 26.732-26.732 26.732zM559.206 428.943c-6.272 0-11.372 5.1-11.372 11.372s5.1 11.372 11.372 11.372 11.372-5.1 11.372-11.372-5.105-11.372-11.372-11.372zM559.206 369.766c-14.74 0-26.732-11.991-26.732-26.732s11.991-26.732 26.732-26.732 26.732 11.991 26.732 26.732-11.991 26.732-26.732 26.732zM559.206 331.663c-6.272 0-11.372 5.1-11.372 11.372s5.1 11.372 11.372 11.372 11.372-5.1 11.372-11.372-5.105-11.372-11.372-11.372zM559.206 272.486c-14.74 0-26.732-11.991-26.732-26.732s11.991-26.732 26.732-26.732 26.732 11.991 26.732 26.732-11.991 26.732-26.732 26.732zM559.206 234.383c-6.272 0-11.372 5.1-11.372 11.372s5.1 11.372 11.372 11.372 11.372-5.1 11.372-11.372-5.105-11.372-11.372-11.372z" />
<glyph unicode="&#xe918;" glyph-name="icon-126" d="M811.607 522.655c-0.891 1.382-88.059 140.452-27.331 342.502l3.021 10.045-148.531 40.73-4.198-4.065c-0.399-0.389-41.068-39.009-112.41-39.014-2.115 0-4.244 0.036-6.077 0.087-0.64 0.041-64.425 4.618-105.498 42.532l-4.342 4.009-135.194-42.081 1.951-9.139c0.502-2.34 48.773-235.264-52.526-340.634l-3.103-3.226 29.665-506.885 6.216-2.35c3.881-1.464 96.855-35.927 252.918-35.932 0.010 0 0.015 0 0.026 0 91.397 0 185.492 11.971 279.67 35.574l7.434 1.864 20.065 503.265-1.756 2.719zM632.591 884.531c5.243-230.067-98.079-357.284-126.904-388.178-88.97 108.339-95.299 322.524-94.858 392.591 45.128-32.333 101.356-36.28 104.264-36.46 56.776-1.766 96.773 18.186 117.499 32.046zM238.321 516.736c94.305 102.984 64.824 301.030 56.489 346.614l95.478 29.722c-1.034-68.649 3.425-296.709 102.216-412.861v-480.394c-52.378 0.712-97.234 5.437-133.166 11.172l-9.897 425.677-15.355-0.358 9.825-422.702c-39.342 7.066-65.905 14.92-77.23 18.606l-28.36 484.526zM773.437 32.84c-26.056-6.359-52.081-11.699-78.039-16.241l9.887 419.702-15.36 0.358-9.953-422.671c-56.259-9.057-112.108-13.804-166.984-14.167v474.726c13.916 12.943 148.214 145.362 139.837 416.323l108.918-29.891c-53.878-191.99 18.156-325.151 30.899-346.557l-19.205-481.582zM559.206 77.926c-14.74 0-26.732-11.991-26.732-26.732s11.991-26.732 26.732-26.732 26.732 11.991 26.732 26.732-11.991 26.732-26.732 26.732zM559.206 39.823c-6.272 0-11.372 5.1-11.372 11.372s5.1 11.372 11.372 11.372 11.372-5.1 11.372-11.372-5.105-11.372-11.372-11.372zM559.206 159.846c-14.74 0-26.732-11.991-26.732-26.732s11.991-26.732 26.732-26.732 26.732 11.991 26.732 26.732-11.991 26.732-26.732 26.732zM559.206 121.743c-6.272 0-11.372 5.1-11.372 11.372s5.1 11.372 11.372 11.372 11.372-5.1 11.372-11.372-5.105-11.372-11.372-11.372zM559.206 236.646c-14.74 0-26.732-11.991-26.732-26.732s11.991-26.732 26.732-26.732 26.732 11.991 26.732 26.732-11.991 26.732-26.732 26.732zM559.206 198.543c-6.272 0-11.372 5.1-11.372 11.372s5.1 11.372 11.372 11.372 11.372-5.1 11.372-11.372-5.105-11.372-11.372-11.372zM559.206 472.166c-14.74 0-26.732-11.991-26.732-26.732s11.991-26.732 26.732-26.732 26.732 11.991 26.732 26.732-11.991 26.732-26.732 26.732zM559.206 434.063c-6.272 0-11.372 5.1-11.372 11.372s5.1 11.372 11.372 11.372 11.372-5.1 11.372-11.372-5.105-11.372-11.372-11.372zM559.206 395.366c-14.74 0-26.732-11.991-26.732-26.732s11.991-26.732 26.732-26.732 26.732 11.991 26.732 26.732-11.991 26.732-26.732 26.732zM559.206 357.263c-6.272 0-11.372 5.1-11.372 11.372s5.1 11.372 11.372 11.372 11.372-5.1 11.372-11.372-5.105-11.372-11.372-11.372zM559.206 318.566c-14.74 0-26.732-11.991-26.732-26.732s11.991-26.732 26.732-26.732 26.732 11.991 26.732 26.732-11.991 26.732-26.732 26.732zM559.206 280.463c-6.272 0-11.372 5.1-11.372 11.372s5.1 11.372 11.372 11.372 11.372-5.1 11.372-11.372-5.105-11.372-11.372-11.372z" />
<glyph unicode="&#xe919;" glyph-name="icon-127" d="M808.064 529.674c-94.684 140.396-18.575 330.194-17.797 332.093l4.301 10.481-152.448 45.312-4.163-3.251c-32.635-25.487-68.608-38.41-106.936-38.41-65.531 0-116.419 38.098-116.915 38.477l-3.958 3.026-17.572-4.552-0.87 0.061c-0.005-0.072-0.010-0.2-0.020-0.292l-138.168-35.794 2.877-10.092c72.719-254.925-31.037-336.328-32.046-337.085l-4.465-3.272 27.136-515.507 7.112-1.966c74.624-20.628 158.484-31.089 249.247-31.089 154.22 0 277.012 30.725 278.241 31.037l7.398 1.879 20.792 512.804 0.138 3.354-1.884 2.785zM531.026 855.419c36.874 0 71.706 10.609 103.788 31.519-3.907-70.82-24.387-273.613-131.287-390.19-90.88 122.772-93.706 329.917-92.165 394.762 18.934-11.996 63.877-36.091 119.665-36.091zM240.896 516.828c20.767 18.785 102.093 110.239 38.011 345.421l111.852 28.979c-1.915-68.495 0.799-280.668 98.273-409.257-26.583-25.201-57.984-45.24-95.068-57.395l-1.428 0.005-2.053-420.296c-11.203 1.208-22.282 2.591-33.188 4.173l-5.719 431.959-15.36-0.2 5.683-429.373c-25.974 4.244-51.118 9.482-75.208 15.877l-25.795 490.107zM769.178 26.957c-12.052-2.739-38.292-8.31-74.409-13.814l10.086 426.998-15.36 0.358-10.148-429.614c-47.324-6.641-108.529-12.59-175.969-12.59-31.724 0-62.556 1.321-92.426 3.912l1.992 407.434c98.729 38.062 171.802 135.040 211.763 281.61 23.132 84.803 29.281 164.869 30.915 200.929l111.713-33.203c-15.365-43.167-64.307-206.781 21.873-337.94l-20.029-494.080zM457.446 332.646c-14.74 0-26.732-11.991-26.732-26.732s11.991-26.732 26.732-26.732 26.732 11.991 26.732 26.732-11.991 26.732-26.732 26.732zM457.446 294.543c-6.272 0-11.372 5.1-11.372 11.372s5.1 11.372 11.372 11.372 11.372-5.1 11.372-11.372-5.105-11.372-11.372-11.372zM580.326 332.646c-14.74 0-26.732-11.991-26.732-26.732s11.991-26.732 26.732-26.732 26.732 11.991 26.732 26.732-11.991 26.732-26.732 26.732zM580.326 294.543c-6.272 0-11.372 5.1-11.372 11.372s5.1 11.372 11.372 11.372 11.372-5.1 11.372-11.372-5.105-11.372-11.372-11.372zM457.446 196.326c-14.74 0-26.732-11.991-26.732-26.732s11.991-26.732 26.732-26.732 26.732 11.991 26.732 26.732-11.991 26.732-26.732 26.732zM457.446 158.223c-6.272 0-11.372 5.1-11.372 11.372s5.1 11.372 11.372 11.372 11.372-5.1 11.372-11.372-5.105-11.372-11.372-11.372zM580.326 196.326c-14.74 0-26.732-11.991-26.732-26.732s11.991-26.732 26.732-26.732 26.732 11.991 26.732 26.732-11.991 26.732-26.732 26.732zM580.326 158.223c-6.272 0-11.372 5.1-11.372 11.372s5.1 11.372 11.372 11.372 11.372-5.1 11.372-11.372-5.105-11.372-11.372-11.372z" />
<glyph unicode="&#xe91a;" glyph-name="icon-128" d="M457.446 373.606c-14.74 0-26.732-11.991-26.732-26.732s11.991-26.732 26.732-26.732 26.732 11.991 26.732 26.732-11.991 26.732-26.732 26.732zM457.446 335.503c-6.272 0-11.372 5.1-11.372 11.372s5.1 11.372 11.372 11.372 11.372-5.1 11.372-11.372-5.105-11.372-11.372-11.372zM580.326 373.606c-14.74 0-26.732-11.991-26.732-26.732s11.991-26.732 26.732-26.732 26.732 11.991 26.732 26.732-11.991 26.732-26.732 26.732zM580.326 335.503c-6.272 0-11.372 5.1-11.372 11.372s5.1 11.372 11.372 11.372 11.372-5.1 11.372-11.372-5.105-11.372-11.372-11.372zM457.446 242.406c-14.74 0-26.732-11.991-26.732-26.732s11.991-26.732 26.732-26.732 26.732 11.991 26.732 26.732-11.991 26.732-26.732 26.732zM457.446 204.303c-6.272 0-11.372 5.1-11.372 11.372s5.1 11.372 11.372 11.372 11.372-5.1 11.372-11.372-5.105-11.372-11.372-11.372zM580.326 242.406c-14.74 0-26.732-11.991-26.732-26.732s11.991-26.732 26.732-26.732 26.732 11.991 26.732 26.732-11.991 26.732-26.732 26.732zM580.326 204.303c-6.272 0-11.372 5.1-11.372 11.372s5.1 11.372 11.372 11.372 11.372-5.1 11.372-11.372-5.105-11.372-11.372-11.372zM457.446 114.406c-14.74 0-26.732-11.991-26.732-26.732s11.991-26.732 26.732-26.732 26.732 11.991 26.732 26.732-11.991 26.732-26.732 26.732zM457.446 76.303c-6.272 0-11.372 5.1-11.372 11.372s5.1 11.372 11.372 11.372 11.372-5.1 11.372-11.372-5.105-11.372-11.372-11.372zM580.326 114.406c-14.74 0-26.732-11.991-26.732-26.732s11.991-26.732 26.732-26.732 26.732 11.991 26.732 26.732-11.991 26.732-26.732 26.732zM580.326 76.303c-6.272 0-11.372 5.1-11.372 11.372s5.1 11.372 11.372 11.372 11.372-5.1 11.372-11.372-5.105-11.372-11.372-11.372z" />
<glyph unicode="&#xe91b;" glyph-name="icon-119" d="M744.576 506.066c-0.691 1.070-68.137 108.672-21.146 265.001l2.335 7.772-114.924 31.508-3.246-3.144c-0.312-0.302-31.775-30.182-86.973-30.188-1.638 0-3.287 0.026-4.7 0.067-0.497 0.031-49.848 3.574-81.628 32.911l-3.359 3.098-104.602-32.558 1.505-7.071c0.389-1.812 37.74-182.031-40.643-263.557l-2.401-2.493 22.953-392.192 4.808-1.812c3-1.137 74.936-27.796 195.686-27.807 0.010 0 0.010 0 0.020 0 70.717 0 143.519 9.267 216.387 27.53l5.755 1.439 15.519 389.386-1.347 2.109zM606.065 786.058c4.055-178.007-75.884-276.434-98.186-300.339-68.838 83.825-73.738 249.544-73.395 303.754 34.913-25.016 78.418-28.068 80.666-28.211 43.935-1.362 74.88 14.075 90.916 24.796zM301.010 501.489c72.965 79.683 50.156 232.914 43.709 268.18l73.871 22.999c-0.799-53.115 2.647-229.571 79.084-319.442v-371.692c-40.525 0.553-75.228 4.204-103.035 8.648l-7.66 329.349-11.878-0.276 7.603-327.055c-30.438 5.468-50.99 11.54-59.756 14.397l-21.939 374.892zM715.044 127.089c-20.163-4.92-40.3-9.057-60.385-12.564l7.649 324.731-11.884 0.282-7.7-327.030c-43.53-7.009-86.738-10.68-129.198-10.967v367.309c10.772 10.015 114.673 112.471 108.196 322.12l84.27-23.127c-41.687-148.547 14.049-251.576 23.91-268.14l-14.858-372.613zM549.289 427.397c-11.412 0-20.685-9.283-20.685-20.685 0-11.407 9.277-20.69 20.685-20.69s20.68 9.283 20.68 20.69c0 11.397-9.272 20.685-20.68 20.685zM549.289 397.906c-4.854 0-8.801 3.948-8.801 8.806 0 4.854 3.948 8.801 8.801 8.801 4.849 0 8.796-3.948 8.796-8.801 0-4.864-3.953-8.806-8.796-8.806zM549.289 324.393c-11.412 0-20.685-9.283-20.685-20.685s9.277-20.685 20.685-20.685c11.407 0 20.68 9.283 20.68 20.685s-9.272 20.685-20.68 20.685zM549.289 294.912c-4.854 0-8.801 3.948-8.801 8.801s3.948 8.796 8.801 8.796c4.849 0 8.796-3.942 8.796-8.796s-3.953-8.801-8.796-8.801zM549.289 217.436c-11.412 0-20.685-9.283-20.685-20.685s9.277-20.685 20.685-20.685c11.407 0 20.68 9.283 20.68 20.685s-9.272 20.685-20.68 20.685zM549.289 187.95c-4.854 0-8.801 3.948-8.801 8.801s3.948 8.801 8.801 8.801c4.849 0 8.796-3.948 8.796-8.801s-3.953-8.801-8.796-8.801z" />
<glyph unicode="&#xe91c;" glyph-name="icon-120" d="M255.56 222.198l-17.239 294.533c94.305 102.989 64.824 301.036 56.489 346.619l95.478 29.722c-1.034-68.649 3.425-296.709 102.216-412.861v-24.248l39.997 39.465c40.771 48.118 127.089 176.553 120.325 395.448l108.913-29.891c-16.527-58.885-21.171-112.205-19.348-158.495l20.444 20.173c0 42.465 5.775 90.363 21.443 142.5l3.021 10.045-148.531 40.73-4.193-4.065c-0.399-0.389-41.068-39.009-112.41-39.014-2.12 0-4.25 0.036-6.083 0.087-0.64 0.041-64.425 4.618-105.498 42.532l-4.342 4.009-135.194-42.081 1.951-9.139c0.502-2.34 48.773-235.264-52.526-340.634l-3.103-3.226 18.806-321.321 19.384 19.113zM410.829 888.945c45.128-32.333 101.356-36.28 104.259-36.46 56.781-1.766 96.773 18.186 117.499 32.046 5.243-230.067-98.079-357.284-126.904-388.178-88.965 108.339-95.293 322.524-94.853 392.591zM337.188 302.735l15.022 14.812-2.77 119.117-15.355-0.358zM773.494 624.66l-17.362-17.505c12.887-50.468 30.746-83.057 36.506-92.733l-19.2-481.582c-26.061-6.359-52.081-11.699-78.039-16.241l9.887 419.702-15.36 0.358-9.953-422.671c-56.259-9.062-112.108-13.804-166.984-14.172v362.143l-20.485-20.659v-341.489c-52.378 0.717-97.234 5.437-133.166 11.177l-4.454 191.539-15.017-15.14 4.040-173.783c-39.342 7.066-65.905 14.915-77.23 18.606l-4.495 76.841-19.364-19.523 4.214-72.008 6.216-2.35c3.881-1.464 96.855-35.927 252.918-35.937 0.010 0 0.015 0 0.026 0 91.397 0 185.492 11.976 279.67 35.579l7.434 1.859 20.060 503.265-1.751 2.719c-0.451 0.717-23.875 38.19-38.108 102.006zM559.212 420.972c-14.746 0-26.737-11.996-26.737-26.737s11.991-26.737 26.737-26.737c14.74 0 26.732 11.996 26.732 26.737s-11.991 26.737-26.732 26.737zM559.212 382.858c-6.277 0-11.377 5.1-11.377 11.377s5.1 11.377 11.377 11.377c6.272 0 11.372-5.1 11.372-11.377s-5.115-11.377-11.372-11.377zM559.212 287.852c-14.746 0-26.737-11.996-26.737-26.737s11.991-26.737 26.737-26.737c14.74 0 26.732 11.996 26.732 26.737s-11.991 26.737-26.732 26.737zM559.212 249.738c-6.277 0-11.377 5.1-11.377 11.377s5.1 11.372 11.377 11.372c6.272 0 11.372-5.094 11.372-11.372s-5.115-11.377-11.372-11.377zM559.212 149.612c-14.746 0-26.737-11.996-26.737-26.737s11.991-26.737 26.737-26.737c14.74 0 26.732 11.996 26.732 26.737s-11.991 26.737-26.732 26.737zM559.212 111.498c-6.277 0-11.377 5.1-11.377 11.377s5.1 11.372 11.377 11.372c6.272 0 11.372-5.094 11.372-11.372s-5.115-11.377-11.372-11.377zM93.404 13.493l829.434 829.434 14.481-14.481-829.434-829.434-14.481 14.481z" />
<glyph unicode="&#xe91d;" glyph-name="icon-121" d="M827.73 109.614c-19.482 516.997-75.822 641.905-78.198 646.963l-3.19-1.495 0.85 3.732-115.092 47.36-28.022 46.438 0.348 0.604c-83.84 47.724-162.324 9.923-175.908 2.647l-0.947 0.64-34.376-50.806-103.368-41.861-0.179 0.051c-0.712-2.58-71.301-262.487-84.844-649.185l-0.369-10.593h99.246l0.906 9.247c0.297 3.011 25.252 256.522 43.039 395.756 0.492-3.092 0.968-6.17 1.418-9.201 0.348-7.716 4.347-107.382-15.212-209.556l-0.102-0.645c-0.737-5.857-17.997-144.159-16.292-222.52l0.133-6.067 5.376-2.801c3.241-1.69 58.204-29.885 107.443-29.88 20.429 0 39.88 4.849 54.236 18.463 4.137 3.456 19.205 19.154 28.396 69.934 7.849-25.062 20.347-49.848 40.218-66.473 21.55-18.028 48.532-24.003 80.184-17.756l89.088 30.228-0.65 7.951c-0.118 1.469-12.15 148.296-27.448 248.545-0.164 0.911-17.101 92.047-7.624 173.855l2.401 10.552c15.77-125.179 41.303-392.996 41.62-396.232l0.896-9.359 96.41 0.932-0.389 10.532zM598.84 821.647l18.708-31.012-0.22-0.532 0.717-0.297 11.617-19.261-17.94-12.334-23.572 14.935 10.691 48.502zM635.121 719.145l-102.446-197.622 50.785 230.349 51.661-32.727zM455.194 807.788c16.456 5.56 69.32 20.321 119.859 1.070l-18.565-84.209-43.525-60.058-40.73 62.382-0.609-0.394-16.43 81.208zM502.723 642.734v-69.908l-20.495 101.335 20.495-31.427zM523.203 642.734l22.036 30.879-22.036-99.942v69.064zM582.262 841.58l-2.76-12.524c-53.827 19.395-107.566 5.837-128.404-1.004l-2.913 14.413c22.687 9.528 76.488 25.887 134.077-0.886zM406.666 789.059l2.514 1.019-0.681 1.69 22.359 33.050 9.656-47.744-29.773-17.183-16.005 11.54 11.93 17.628zM444.795 755.901l44.81-221.527-100.869 189.169 56.059 32.358zM285.123 124.585h-59.464c11.259 296.817 55.967 516.516 75.039 598.61 8.97-34.442 23.419-92.227 35.22-150.19-15.37-94.659-45.194-392.054-50.796-448.42zM499.83 207.985c-0.005-0.297-0.010-0.773-0.010-1.516-1.014-119.020-28.017-143.585-27.981-143.58l-1.075-0.911c-29.865-28.749-101.489-3.308-132.941 11.817-0.65 76.129 15.273 205.655 16.189 213.033 20.649 108.129 15.519 213.545 15.468 214.605l-0.097 0.973c-13.855 93.312-45.998 215.721-55.040 249.272l58.26 23.588-5.97-8.822 24.653-17.782-29.947-17.28 138.491-259.722v-263.675zM666.711 497.203l-0.179-1.075c-9.979-85.125 7.060-176.732 7.721-180.229 13.107-85.862 23.839-206.915 26.563-238.812l-71.992-24.499c-25.303-4.869-45.747-0.451-62.403 13.481-43.571 36.398-45.998 125.578-46.106 139.812v247.306l141.635 273.213-31.421 19.896 26.629 18.304-7.316 12.119 73.523-30.254-56.653-249.262zM750.321 118.82c-5.75 59.955-36.209 374.569-48.461 440.617l37.33 164.198c16.328-55.813 52.618-219.331 67.671-604.268l-56.54-0.548zM571.525 397.655c0-7.895-6.4-14.295-14.295-14.295s-14.295 6.4-14.295 14.295c0 7.895 6.4 14.295 14.295 14.295s14.295-6.4 14.295-14.295zM542.935 302.93h28.59v-10.24h-28.59v10.24z" />
<glyph unicode="&#xe91e;" glyph-name="icon-111" d="M921.569 244.92l-49.966 40.996 49.976 67.917-50.872 40.945 58.798 54.328-60.692 49.72 60.416 62.986-60.186 46.1 52.178 54.723-52.454 43.5 59.93 62.479-102.912 90.803-47.078-55.992-59.167 56.591-45.998-58.778-59.889 58.619-46.090-55.050-55.885 54.554-54.451-57.047-51.553 57.994-51.471-59.197-55.962 58.506-55.864-58.404-50.058 59.039-90.199-97.843 53.796-51.231-54.287-59.459 56.125-45.916-56.32-58.88 56.668-46.367-55.808-63.416 54.19-51.676-54.943-49.828 54.129-52.844-54.016-54.016 57.416-52.316-57.974-55.393 99.041-82.278 52.265 49.715 56.591-50.161 49.987 51.267 58.988-51.292 46.177 48.742 57.6-48.64 46.157 48.717 58.875-48.635 47.201 49.756 57.411-49.756 48.794 48.799 59.576-49.213 82.048 98.765-49.029 42.573 48.794 65.495zM893.24 134.513l-56.192-67.635-58.184 48.067-48.486-48.481-57.789 50.084-47.519-50.084-58.885 48.645-46.003-48.563-57.6 48.64-45.983-48.538-58.772 51.108-49.853-51.133-56.049 49.679-52.695-50.125-67.359 55.962 57.226 54.687-57.784 52.644 53.504 53.504-53.391 52.116 55.137 50.012-55.89 53.284 56.832 64.584-55.972 45.793 56.32 58.88-56.515 46.244 53.228 58.301-53.724 51.169 60.841 65.997 49.782-58.716 56.776 59.346 56.678-59.254 50.924 58.563 50.847-57.206 55.501 58.148 56.883-55.526 46.070 55.030 60.431-59.141 46.162 58.982 58.593-56.049 47.642 56.648 71.168-62.797-60.39-62.961 52.506-43.54-52.782-55.357 60.134-46.060-59.904-62.454 59.628-48.84-58.962-54.472 54.088-43.535-49.864-67.763 49.874-40.924-48.481-65.060 48.256-41.902zM405.824 670.358l14.373-14.588-116.050-114.34-14.373 14.588 116.050 114.34zM557.68 694.184l14.438-14.524-298.695-296.926-14.438 14.524 298.695 296.926zM258.917 269.155l430.063 438.601 14.623-14.338-430.063-438.601-14.623 14.338zM333.314 191.575l-14.541 14.422 433.414 436.984 14.541-14.422-433.414-436.984zM459.439 198.265l-14.273 14.678 307.157 298.674 14.273-14.678-307.157-298.674zM613.039 230.798l-14.432 14.531 117.734 116.937 14.432-14.531-117.734-116.937z" />
<glyph unicode="&#xe91f;" glyph-name="icon-112" d="M867.84 458.24h-345.6v345.6h-20.48v-345.6h-345.6v-20.48h345.6v-345.6h20.48v345.6h345.6z" />
<glyph unicode="&#xe920;" glyph-name="icon-113" d="M843.52 442.88h-614.892l211.937 202.516-14.147 14.807-238.218-227.63 238.28-223.718 14.024 14.93-211.548 198.615h614.564z" />
<glyph unicode="&#xe921;" glyph-name="icon-114" d="M732.227 525.097l-220.513 254.971-208.599-255.186 15.852-12.964 182.794 223.616v-624.174h20.48v625.229l194.493-224.886z" />
<glyph unicode="&#xe922;" glyph-name="icon-115" d="M525.041 721.987c-156.687 0-284.16-127.473-284.16-284.16s127.473-284.16 284.16-284.16c156.687 0 284.16 127.473 284.16 284.16s-127.478 284.16-284.16 284.16zM525.041 174.147c-145.393 0-263.68 118.287-263.68 263.68s118.287 263.68 263.68 263.68c145.393 0 263.68-118.287 263.68-263.68 0-145.398-118.287-263.68-263.68-263.68zM537.6 599.040h-20.48v-147.84h-147.84v-20.48h147.84v-147.84h20.48v147.84h147.84v20.48h-147.84z" />
<glyph unicode="&#xe923;" glyph-name="icon-116" d="M525.041 721.987c-156.687 0-284.16-127.473-284.16-284.16s127.473-284.16 284.16-284.16c156.687 0 284.16 127.473 284.16 284.16s-127.478 284.16-284.16 284.16zM525.041 174.147c-145.393 0-263.68 118.287-263.68 263.68s118.287 263.68 263.68 263.68c145.393 0 263.68-118.287 263.68-263.68 0-145.398-118.287-263.68-263.68-263.68zM369.28 451.2h316.16v-20.48h-316.16v20.48z" />
<glyph unicode="&#xe924;" glyph-name="icon-117" d="M920.351 284.861l-210.683 453.78-409.948-3.907-201.692-452.316 117.222-52.516 112.604 271.805-6.707-344.284h373.663l-6.579 350.607 107.392-277.637 124.728 54.467zM662.185 717.706l8.796-63.293-66.509-27.382 53.192 90.634 4.521 0.041zM614.758 549.146l-77.414-36.5 62.986 107.331 14.428-70.83zM358.17 714.813l9.446 0.092 111.944-203.53-85.268 45.476 19.937 71.209-56.059 18.893v67.86zM497.198 177.91h-155.167l8.412 431.831-146.053-352.532-79.334 35.538 188.006 421.632 24.622 0.236v-82.376l51.574-17.388-19.133-68.332 127.073-67.773v-300.836zM390.861 715.121l242.924 2.314-126.054-214.794-116.869 212.48zM673.94 177.91h-156.262v301.225l1.295 2.207 119.066 56.141-15.263 74.936 70.676 29.102-10.609 76.385 14.034 0.133 195.773-422.927-86.088-37.591-140.841 358.502 8.218-438.113z" />
<glyph unicode="&#xe925;" glyph-name="icon-118" d="M920.351 302.909l-183.168 378.829 140.887 140.887-14.479 14.479-135.844-135.844-18.074 37.381-409.948-3.907-201.697-452.316 117.222-52.516 112.604 271.805-3.978-204.319-210.365-210.371 14.479-14.479 195.313 195.313-2.15-110.428h373.663l-6.579 350.607 107.392-259.589 124.723 54.467zM712.407 685.926l-22.062-22.057-7.506 54.036 14.034 0.133 15.534-32.113zM614.758 549.146l-19.251-9.078 17.531 17.531 1.72-8.453zM540.708 514.232l-3.364-1.587 62.986 107.331 7.803-38.318-67.425-67.425zM358.17 646.948v67.866l9.446 0.092 111.944-203.53-85.268 45.476 19.937 71.209-56.059 18.888zM670.981 654.413l-66.509-27.382 53.192 90.634 4.526 0.041 8.791-63.293zM507.73 502.641l-116.864 212.48 242.924 2.314-126.060-214.794zM622.776 612.419l27.407 11.284-24.673-24.678-2.734 13.394zM204.39 257.208l-79.334 35.538 188.006 421.632 24.622 0.236v-82.376l51.574-17.388-19.133-68.332 127.073-67.773v-8.028l-152.433-152.433 5.678 291.456-146.053-352.532zM344.192 288.748l153.011 153.011v-263.849h-155.172l2.161 110.838zM517.678 177.91v284.329l34.985 34.985 85.376 40.259-7.634 37.484 35.42 35.42 8.115-432.476h-156.262zM667.402 611.963l54.441 54.441 170.808-353.244-86.088-37.591-139.162 336.394z" />
<glyph unicode="&#xe926;" glyph-name="icon-108" d="M461.983 270.254l10.762 466.79-20.475 0.471-10.87-471.404c-55.828-10.609-107.336-15.99-153.416-15.99-11.392 0-21.924 0.338-31.667 0.922l5.652 486.18-10.24 0.118-5.647-485.576c-28.375 2.319-49.044 6.707-62.787 10.614l-7.516 475.064-20.475-0.323 7.393-467.4c-0.466 0.225-0.737 0.358-0.763 0.374l-15.165 8.325v-120.131l4.649-3.031c33.956-22.129 77.563-33.352 129.623-33.352 96.092 0 187.53 37.699 191.38 39.306l6.292 2.632v109.926l-12.375-2.637c-1.464-0.312-2.893-0.573-4.357-0.881zM167.255 245.888c14.049-4.823 38.292-11.151 74.24-14.295v-86.564c-28.529 3.85-53.443 11.965-74.24 24.474v76.385zM458.24 177.649c-22.124-8.387-99.128-35.261-177.193-35.261-10.158 0-19.891 0.527-29.312 1.423v86.999c11.085-0.732 23.112-1.172 36.25-1.172 50.934 0 108.155 6.354 170.255 18.898v-70.886zM869.576 271.037c-0.061-0.015-0.645-0.159-1.603-0.394 1.172 89.774 10.010 462.367 10.107 466.391l-20.47 0.486c-0.102-4.096-9.267-390.303-10.168-471.393-30.444-6.185-88.474-16.010-149.914-16.010-12.575 0-24.658 0.425-36.285 1.234l5.222 485.868-10.24 0.108-5.212-485.084c-22.118 2.048-42.383 5.627-60.657 10.721l-10.941 469.427-20.47-0.476 10.772-462.259c-0.906 0.343-1.879 0.64-2.775 0.988l-13.983 5.484v-118.292l5.243-2.929c2.289-1.28 57.062-31.304 143.877-31.304 58.286 0 116.951 13.573 174.362 40.351l5.908 2.755v107.607l-12.774-3.277zM573.44 246.589c22.825-7.414 48.763-12.37 77.45-14.92v-83.722c-39.153 5.934-66.56 17.162-77.45 22.236v76.406zM861.87 179.799c-52.787-23.711-106.511-35.727-159.79-35.727-14.659 0-28.308 0.963-40.95 2.483v84.285c11.704-0.783 23.818-1.203 36.388-1.203 71.716 0 137.421 12.631 164.352 18.57v-68.408z" />
<glyph unicode="&#xe927;" glyph-name="icon-109" d="M437.386 187.587c-80.865-31.319-140.728-36.372-182.277-32.384l9.062 578.862-10.24 0.159-9.047-577.812c-33.833 4.762-53.668 15.396-61.194 20.214l-8.013 557.665-20.48-0.297 8.156-567.48 3.517-3.011c2.196-1.874 36.792-30.305 112.737-30.305 43.249 0 99.917 9.226 171.628 37.827l6.262 2.493 15.206 560.343-20.47 0.553-14.848-546.826zM859.054 734.397l-13.722-544.041c-72.627-36.26-136.397-39.716-182.328-33.94l4.526 577.684-10.24 0.082-4.516-576.271c-29.834 4.879-50.852 13.297-59.976 17.48l-9.144 558.92-20.48-0.333 9.344-571.034 5.11-2.883c3.052-1.72 48.922-26.865 120.76-26.865 45.082 0 100.393 9.912 161.746 41.718l5.371 2.785 14.019 556.191-20.47 0.507z" />
<glyph unicode="&#xe928;" glyph-name="icon-110" d="M461.983 270.254l10.762 466.79-20.475 0.471-10.87-471.404c-55.828-10.609-107.336-15.99-153.416-15.99-11.392 0-21.924 0.338-31.667 0.922l5.652 486.18-10.24 0.118-5.647-485.576c-28.375 2.319-49.044 6.707-62.787 10.614l-7.516 475.064-20.475-0.323 7.393-467.4c-0.466 0.225-0.737 0.358-0.763 0.374l-15.165 8.325v-120.131l4.649-3.031c33.956-22.129 77.563-33.352 129.623-33.352 96.092 0 187.53 37.699 191.38 39.306l6.292 2.632v109.926l-12.375-2.637c-1.464-0.312-2.893-0.573-4.357-0.881zM167.255 245.888c14.049-4.823 38.292-11.151 74.24-14.295v-86.564c-28.529 3.85-53.443 11.965-74.24 24.474v76.385zM458.24 177.649c-22.124-8.387-99.128-35.261-177.193-35.261-10.158 0-19.891 0.527-29.312 1.423v86.999c11.085-0.732 23.112-1.172 36.25-1.172 50.934 0 108.155 6.354 170.255 18.898v-70.886zM869.576 271.037c-0.061-0.015-0.645-0.159-1.603-0.394 1.172 89.774 10.010 462.367 10.107 466.391l-20.47 0.486c-0.102-4.096-9.267-390.303-10.168-471.393-30.444-6.185-88.474-16.010-149.914-16.010-12.575 0-24.658 0.425-36.285 1.234l5.222 485.868-10.24 0.108-5.212-485.084c-22.118 2.048-42.383 5.627-60.657 10.721l-10.941 469.427-20.47-0.476 10.772-462.259c-0.906 0.343-1.879 0.64-2.775 0.988l-13.983 5.484v-118.292l5.243-2.929c2.289-1.28 57.062-31.304 143.877-31.304 58.286 0 116.951 13.573 174.362 40.351l5.908 2.755v107.607l-12.774-3.277zM573.44 246.589c22.825-7.414 48.763-12.37 77.45-14.92v-83.722c-39.153 5.934-66.56 17.162-77.45 22.236v76.406zM861.87 179.799c-52.787-23.711-106.511-35.727-159.79-35.727-14.659 0-28.308 0.963-40.95 2.483v84.285c11.704-0.783 23.818-1.203 36.388-1.203 71.716 0 137.421 12.631 164.352 18.57v-68.408z" />
<glyph unicode="&#xe929;" glyph-name="icon-97" d="M901.115 93.256c-8.115 348.436-34.391 510.95-36.69 524.575v142.024l-5.699 2.816c-80.696 39.91-717.558 24.76-744.632 24.1l0.502-20.475c205.292 5.038 588.708 7.639 706.58-14.044-34.222-8.474-89.923-14.147-156.78-17.751v0.046l-57.549-2.499v-0.077c-160.773-5.622-362.757-2.012-492.129 2.744l-0.748-20.465c8.95-0.328 85.555-3.067 186.829-4.531v-111.652c-102.436 2.181-177.848 5.975-179.953 6.083l-1.055-20.454c8.407-0.43 82.212-4.147 181.007-6.303v-373.868h20.48v373.448c22.528-0.425 46.136-0.753 70.4-0.942v-372.511h20.48v372.388c7.588-0.031 15.206-0.051 22.881-0.051 56.929 0 115.927 0.922 171.807 3.374v-0.010l0.988 0.056c17.741 0.783 35.128 1.736 52.065 2.857l4.521 0.246v0.051c22.958 1.567 44.964 3.466 65.644 5.745 4.808-46.106 30.418-223.933 141.624-266.511 3.686-64.753 6.897-140.826 8.95-228.884l20.475 0.476zM843.945 631.501c-37.427-14.469-102.82-23.337-179.502-28.513 0.026 23.598 0.072 79.816 0.015 111.268 78.771 4.316 144.773 11.663 179.487 23.644v-106.399zM627.328 712.438l16.65 0.727c0.056-32.174 0.010-88.822-0.015-111.396l-16.635-0.911v111.58zM321.28 597.652v111.785c32.036-0.394 66.115-0.64 101.023-0.64 61.251 0 124.989 0.778 184.545 2.888v-111.852c-94.203-4.065-198.088-3.789-285.568-2.181zM750.469 590.587c38.077 4.9 70.554 11.284 94.464 19.512 3.287-20.716 15.647-105.738 25.411-265.549-92.037 44.344-115.364 204.918-119.875 246.036z" />
<glyph unicode="&#xe92a;" glyph-name="icon-98" d="M864.425 617.83v142.024l-5.699 2.816c-80.696 39.91-717.558 24.76-744.632 24.1l0.502-20.475c205.292 5.038 588.708 7.639 706.58-14.044-34.222-8.474-89.923-14.147-156.78-17.751v0.046l-57.549-2.499v-0.077c-160.773-5.622-362.757-2.012-492.129 2.744l-0.748-20.465c8.95-0.328 85.555-3.067 186.829-4.531v-111.652c-102.436 2.181-177.848 5.975-179.953 6.083l-1.055-20.454c8.407-0.43 82.212-4.147 181.007-6.303v-373.868h20.48v373.448c22.528-0.425 46.136-0.753 70.4-0.942v-372.511h20.48v372.388c7.588-0.031 15.206-0.051 22.881-0.051 56.929 0 115.927 0.922 171.807 3.374v-0.010l0.988 0.056c17.741 0.783 35.128 1.736 52.065 2.857l4.521 0.246v0.051c74.988 5.115 140.052 13.752 180.511 27.668 4.71-29.732 28.119-191.795 35.712-517.325l20.47 0.481c-8.115 348.436-34.391 510.95-36.69 524.575zM843.945 631.501c-37.427-14.469-102.82-23.337-179.502-28.513 0.026 23.598 0.072 79.816 0.015 111.268 78.771 4.316 144.773 11.663 179.487 23.644v-106.399zM627.328 712.438l16.65 0.727c0.056-32.174 0.010-88.822-0.015-111.396l-16.635-0.911v111.58zM321.28 597.652v111.785c32.036-0.394 66.115-0.64 101.023-0.64 61.251 0 124.989 0.778 184.545 2.888v-111.852c-94.203-4.065-198.088-3.789-285.568-2.181zM765.225 571.965l-4.086 10.706-45.891-23.716 3.108-8.479c0.548-1.5 55.526-151.695 99.215-299.945l3.661-12.436 42.44 24.32-2.15 7.68c-0.517 1.864-52.552 187.31-96.297 301.87zM833.531 268.749c-37.181 124.518-81.004 247.46-92.861 280.294l9.467 4.895c37.412-100.47 79.575-246.784 89.498-281.687l-6.103-3.502z" />
<glyph unicode="&#xe92b;" glyph-name="icon-99" d="M864.425 617.83v142.024l-5.699 2.816c-80.696 39.91-717.558 24.76-744.632 24.1l0.502-20.475c205.292 5.038 588.708 7.639 706.58-14.044-34.222-8.474-89.923-14.147-156.78-17.751v0.046l-57.549-2.499v-0.077c-160.773-5.622-362.757-2.012-492.129 2.744l-0.748-20.465c8.95-0.328 85.555-3.067 186.829-4.531v-111.652c-102.436 2.181-177.848 5.975-179.953 6.083l-1.055-20.454c8.407-0.43 82.212-4.147 181.007-6.303v-373.868h20.48v373.448c22.528-0.425 46.136-0.753 70.4-0.942v-372.511h20.48v372.388c7.588-0.031 15.206-0.051 22.881-0.051 56.929 0 115.927 0.922 171.807 3.374v-0.010l0.988 0.056c17.741 0.783 35.128 1.736 52.065 2.857l4.521 0.246v0.051c74.988 5.115 140.052 13.752 180.511 27.668 4.71-29.732 28.119-191.795 35.712-517.325l20.47 0.481c-8.115 348.436-34.391 510.95-36.69 524.575zM843.945 631.501c-37.427-14.469-102.82-23.337-179.502-28.513 0.026 23.598 0.072 79.816 0.015 111.268 78.771 4.316 144.773 11.663 179.487 23.644v-106.399zM627.328 712.438l16.65 0.727c0.056-32.174 0.010-88.822-0.015-111.396l-16.635-0.911v111.58zM321.28 597.652v111.785c32.036-0.394 66.115-0.64 101.023-0.64 61.251 0 124.989 0.778 184.545 2.888v-111.852c-94.203-4.065-198.088-3.789-285.568-2.181zM841.554 557.199l-1.464 11.366-50.166-12.308 1.039-8.97c0.179-1.587 18.447-160.507 26.189-314.839l0.65-12.948 46.956 13.711-0.292 7.972c-0.067 1.92-7.219 194.396-22.912 316.017zM836.936 246.415c-6.979 129.766-20.787 259.548-24.622 294.246l10.348 2.54c12.831-106.435 19.548-258.555 21.023-294.81l-6.748-1.976z" />
<glyph unicode="&#xe92c;" glyph-name="icon-100" d="M901.115 93.256c-8.115 348.436-34.391 510.95-36.69 524.575v142.024l-5.699 2.816c-80.696 39.91-717.558 24.76-744.632 24.1l0.502-20.475c205.292 5.038 588.708 7.639 706.58-14.044-34.222-8.474-89.923-14.147-156.78-17.751v0.046l-57.549-2.499v-0.077c-160.773-5.622-362.757-2.012-492.129 2.744l-0.748-20.465c8.95-0.328 85.555-3.067 186.829-4.531v-111.652c-102.436 2.181-177.848 5.975-179.953 6.083l-1.055-20.454c8.407-0.43 82.212-4.147 181.007-6.303v-373.868h20.48v373.448c22.528-0.425 46.136-0.753 70.4-0.942v-372.511h20.48v372.388c7.588-0.031 15.206-0.051 22.881-0.051 56.929 0 115.927 0.922 171.807 3.374v-0.010l0.988 0.056c17.741 0.783 35.128 1.736 52.065 2.857l4.521 0.246v0.051c22.958 1.567 44.964 3.466 65.644 5.745 4.808-46.106 30.418-223.933 141.624-266.511 3.686-64.753 6.897-140.826 8.95-228.884l20.475 0.476zM843.945 631.501c-37.427-14.469-102.82-23.337-179.502-28.513 0.026 23.598 0.072 79.816 0.015 111.268 78.771 4.316 144.773 11.663 179.487 23.644v-106.399zM627.328 712.438l16.65 0.727c0.056-32.174 0.010-88.822-0.015-111.396l-16.635-0.911v111.58zM321.28 597.652v111.785c32.036-0.394 66.115-0.64 101.023-0.64 61.251 0 124.989 0.778 184.545 2.888v-111.852c-94.203-4.065-198.088-3.789-285.568-2.181zM750.469 590.587c38.077 4.9 70.554 11.284 94.464 19.512 3.287-20.716 15.647-105.738 25.411-265.549-92.037 44.344-115.364 204.918-119.875 246.036z" />
<glyph unicode="&#xe92d;" glyph-name="icon-101" d="M931.835 90.721c-9.713 365.476-18.186 615.542-19.978 667.433l3.343 0.2v113.265l-10.179 0.061c-83.625 0.512-170.819 1.5-254.392 2.703l-0.005 0.63h-42.465c-225.597 3.461-414.5 8.115-417.183 8.187l-10.496 0.261v-113.915l-2.924 0.937c-2.54-7.931-61.471-197.801-4.716-513.695l7.649-175.099 20.46 0.891-7.68 175.79-0.154 1.372c-50.176 278.595-7.752 461.43 2.028 497.751 8.888-0.543 17.879-1.055 26.931-1.551v-0.225l10.46-0.348c41.508-2.176 84.741-3.85 129.434-5.053-9.795-56.602-55.562-365.624 79.514-522.455-79.263 0.445-133.192 2.509-134.093 2.545l-0.404-10.23c0.901-0.036 54.477-2.089 133.325-2.555v-112.66h20.48v112.568c3.456-0.005 6.943-0.010 10.481-0.010 48.097 0 103.219 0.66 160.358 2.647l-0.348 10.23c-64.287-2.227-125.983-2.775-177.981-2.601l1.029 0.942c-139.75 152.812-91.146 469.391-82.017 521.318 51.169-1.28 104.146-1.961 158.879-1.961 22.646 0 44.703 0.118 66.125 0.317v-0.317h53.811l-0.005 1.014c117.289 1.946 206.966 6.164 240.276 7.9 1.818-52.782 10.271-302.408 19.958-666.824l20.48 0.538zM617.805 769.106v85.279c4.132-0.061 8.269-0.123 12.421-0.184l0.343-84.925c-4.219-0.061-8.479-0.118-12.764-0.169zM252.16 775.204l-9.6 0.317v83.625l9.6-0.051v-83.891zM200.96 777.631v84.838c5.222-0.123 12.344-0.292 21.12-0.497v-85.514c-7.050 0.389-14.172 0.758-21.12 1.172zM531.2 768.568c-91.249 0-177.828 1.812-258.56 5.371v86.892c74.629-1.644 192.922-4.076 324.685-6.134v-85.816c-21.407-0.2-43.489-0.312-66.125-0.312zM650.711 853.898c80.123-1.152 163.569-2.109 244.009-2.637v-73.58c-29.036-1.551-121.283-6.067-243.671-8.105l-0.338 84.321z" />
<glyph unicode="&#xe92e;" glyph-name="icon-102" d="M931.835 90.721c-9.713 365.476-18.186 615.542-19.978 667.433l3.343 0.2v113.265l-10.179 0.061c-83.625 0.512-170.819 1.5-254.392 2.703l-0.005 0.63h-42.465c-225.597 3.461-414.5 8.115-417.183 8.187l-10.496 0.261v-113.915l-2.924 0.937c-2.54-7.931-61.471-197.801-4.716-513.695l7.649-175.099 20.46 0.891-7.68 175.79-0.154 1.372c-50.176 278.595-7.752 461.43 2.028 497.751 8.888-0.543 17.879-1.055 26.931-1.551v-0.225l10.46-0.348c41.508-2.176 84.741-3.85 129.434-5.053-9.795-56.602-55.562-365.624 79.514-522.455-79.263 0.445-133.192 2.509-134.093 2.545l-0.404-10.23c0.901-0.036 54.477-2.089 133.325-2.555v-112.66h20.48v112.568c3.456-0.005 6.943-0.010 10.481-0.010 48.097 0 103.219 0.66 160.358 2.647l-0.348 10.23c-64.287-2.227-125.983-2.775-177.981-2.601l1.029 0.942c-139.75 152.812-91.146 469.391-82.017 521.318 51.169-1.28 104.146-1.961 158.879-1.961 22.646 0 44.703 0.118 66.125 0.317v-0.317h53.811l-0.005 1.014c117.289 1.946 206.966 6.164 240.276 7.9 1.818-52.782 10.271-302.408 19.958-666.824l20.48 0.538zM617.805 769.106v85.279c4.132-0.061 8.269-0.123 12.421-0.184l0.343-84.925c-4.219-0.061-8.479-0.118-12.764-0.169zM252.16 775.204l-9.6 0.317v83.625l9.6-0.051v-83.891zM200.96 777.631v84.838c5.222-0.123 12.344-0.292 21.12-0.497v-85.514c-7.050 0.389-14.172 0.758-21.12 1.172zM531.2 768.568c-91.249 0-177.828 1.812-258.56 5.371v86.892c74.629-1.644 192.922-4.076 324.685-6.134v-85.816c-21.407-0.2-43.489-0.312-66.125-0.312zM650.711 853.898c80.123-1.152 163.569-2.109 244.009-2.637v-73.58c-29.036-1.551-121.283-6.067-243.671-8.105l-0.338 84.321zM477.865 610.135h284.16v67.41h-284.16v-67.41zM498.345 630.615v8.105h243.2v-8.105h-243.2zM741.545 657.065v-8.105h-243.2v8.105h243.2zM618.563 594.877c-13.747 0-24.929-11.182-24.929-24.924s11.187-24.924 24.929-24.924c13.742 0 24.919 11.182 24.919 24.924s-11.182 24.924-24.919 24.924zM618.563 555.264c-8.1 0-14.689 6.589-14.689 14.684s6.589 14.684 14.689 14.684c8.095 0 14.679-6.589 14.679-14.684s-6.584-14.684-14.679-14.684z" />
<glyph unicode="&#xe92f;" glyph-name="icon-103" d="M931.835 90.721c-9.713 365.476-18.186 615.542-19.978 667.433l3.343 0.2v113.265l-10.179 0.061c-83.625 0.512-170.819 1.5-254.392 2.703l-0.005 0.63h-42.465c-225.597 3.461-414.5 8.115-417.183 8.187l-10.496 0.261v-113.915l-2.924 0.937c-2.54-7.931-61.471-197.801-4.716-513.695l7.649-175.099 20.46 0.891-7.68 175.79-0.154 1.372c-50.176 278.595-7.752 461.43 2.028 497.751 8.888-0.543 17.879-1.055 26.931-1.551v-0.225l10.46-0.348c41.508-2.176 84.741-3.85 129.434-5.053-9.795-56.602-55.562-365.624 79.514-522.455-79.263 0.445-133.192 2.509-134.093 2.545l-0.404-10.23c0.901-0.036 54.477-2.089 133.325-2.555v-112.66h20.48v112.568c3.456-0.005 6.943-0.010 10.481-0.010 48.097 0 103.219 0.66 160.358 2.647l-0.348 10.23c-64.287-2.227-125.983-2.775-177.981-2.601l1.029 0.942c-139.75 152.812-91.146 469.391-82.017 521.318 51.169-1.28 104.146-1.961 158.879-1.961 22.646 0 44.703 0.118 66.125 0.317v-0.317h53.811l-0.005 1.014c117.289 1.946 206.966 6.164 240.276 7.9 1.818-52.782 10.271-302.408 19.958-666.824l20.48 0.538zM617.805 769.106v85.279c4.132-0.061 8.269-0.123 12.421-0.184l0.343-84.925c-4.219-0.061-8.479-0.118-12.764-0.169zM252.16 775.204l-9.6 0.317v83.625l9.6-0.051v-83.891zM200.96 777.631v84.838c5.222-0.123 12.344-0.292 21.12-0.497v-85.514c-7.050 0.389-14.172 0.758-21.12 1.172zM531.2 768.568c-91.249 0-177.828 1.812-258.56 5.371v86.892c74.629-1.644 192.922-4.076 324.685-6.134v-85.816c-21.407-0.2-43.489-0.312-66.125-0.312zM650.711 853.898c80.123-1.152 163.569-2.109 244.009-2.637v-73.58c-29.036-1.551-121.283-6.067-243.671-8.105l-0.338 84.321zM476.16 452.116l137.344-73.743 137.431 72.412v217.375h-274.775v-216.044zM496.64 647.68h233.815v-184.54l-116.859-61.568-116.956 62.792v183.316z" />
<glyph unicode="&#xe930;" glyph-name="icon-104" d="M931.835 90.721c-9.713 365.476-18.186 615.542-19.978 667.433l3.343 0.2v113.265l-10.179 0.061c-83.625 0.512-170.819 1.5-254.392 2.703l-0.005 0.63h-42.465c-225.597 3.461-414.5 8.115-417.183 8.187l-10.496 0.261v-113.915l-2.924 0.937c-2.54-7.931-61.471-197.801-4.716-513.695l7.649-175.099 20.46 0.891-7.68 175.79-0.154 1.372c-50.176 278.595-7.752 461.43 2.028 497.751 8.888-0.543 17.879-1.055 26.931-1.551v-0.225l10.46-0.348c41.508-2.176 84.741-3.85 129.434-5.053-9.795-56.602-55.562-365.624 79.514-522.455-79.263 0.445-133.192 2.509-134.093 2.545l-0.404-10.23c0.901-0.036 54.477-2.089 133.325-2.555v-112.66h20.48v112.568c3.456-0.005 6.943-0.010 10.481-0.010 48.097 0 103.219 0.66 160.358 2.647l-0.348 10.23c-64.287-2.227-125.983-2.775-177.981-2.601l1.029 0.942c-139.75 152.812-91.146 469.391-82.017 521.318 51.169-1.28 104.146-1.961 158.879-1.961 22.646 0 44.703 0.118 66.125 0.317v-0.317h53.811l-0.005 1.014c117.289 1.946 206.966 6.164 240.276 7.9 1.818-52.782 10.271-302.408 19.958-666.824l20.48 0.538zM617.805 769.106v85.279c4.132-0.061 8.269-0.123 12.421-0.184l0.343-84.925c-4.219-0.061-8.479-0.118-12.764-0.169zM252.16 775.204l-9.6 0.317v83.625l9.6-0.051v-83.891zM200.96 777.631v84.838c5.222-0.123 12.344-0.292 21.12-0.497v-85.514c-7.050 0.389-14.172 0.758-21.12 1.172zM531.2 768.568c-91.249 0-177.828 1.812-258.56 5.371v86.892c74.629-1.644 192.922-4.076 324.685-6.134v-85.816c-21.407-0.2-43.489-0.312-66.125-0.312zM650.711 853.898c80.123-1.152 163.569-2.109 244.009-2.637v-73.58c-29.036-1.551-121.283-6.067-243.671-8.105l-0.338 84.321zM440.32 594.77l5.202-2.939c2.14-1.213 53.448-29.681 134.426-29.681 0.005 0 0 0 0.005 0 50.831 0 102.006 11.274 152.095 33.505l6.083 2.703v66.386h-297.81v-69.975zM460.8 644.265h256.855v-32.532c-45.507-19.313-91.802-29.102-137.708-29.102-61.148 0-104.709 17.669-119.148 24.438v37.197z" />
<glyph unicode="&#xe931;" glyph-name="icon-105" d="M931.835 90.721c-9.713 365.476-18.186 615.542-19.978 667.433l3.343 0.2v113.265l-10.179 0.061c-83.625 0.512-170.819 1.5-254.392 2.703l-0.005 0.63h-42.465c-225.597 3.461-414.5 8.115-417.183 8.187l-10.496 0.261v-113.915l-2.924 0.937c-1.306-4.086-17.562-56.571-25.272-149.581l-0.451-3.835h0.133c-6.932-87.291-6.241-209.357 20.874-360.279l7.649-175.099 20.46 0.891-7.68 175.79-0.154 1.372c-26.813 148.874-27.156 270.336-20.188 356.808l131.548-3.251 1.096 71.235-124.232 4.751c5.315 34.437 10.941 57.585 13.804 68.209 8.888-0.543 17.879-1.055 26.931-1.551v-0.225l10.46-0.348c41.508-2.176 84.741-3.85 129.434-5.053-9.795-56.602-55.562-365.624 79.514-522.455-79.263 0.445-133.192 2.509-134.093 2.545l-0.404-10.23c0.901-0.036 54.477-2.089 133.325-2.555v-112.66h20.48v112.568c3.456-0.005 6.943-0.010 10.481-0.010 48.097 0 103.219 0.66 160.358 2.647l-0.348 10.23c-64.287-2.227-125.983-2.775-177.981-2.601l1.029 0.942c-139.75 152.812-91.146 469.391-82.017 521.318 51.169-1.28 104.146-1.961 158.879-1.961 22.646 0 44.703 0.118 66.125 0.317v-0.317h53.811l-0.005 1.014c117.289 1.946 206.966 6.164 240.276 7.9 1.818-52.782 10.271-302.408 19.958-666.824l20.48 0.538zM617.805 769.106v85.279c4.132-0.061 8.269-0.123 12.421-0.184l0.343-84.925c-4.219-0.061-8.479-0.118-12.764-0.169zM252.16 775.204l-9.6 0.317v83.625l9.6-0.051v-83.891zM174.787 636.984l1.116 9.533h108.6l-0.189-12.237-109.527 2.703zM284.667 656.758h-107.566l1.423 12.134 106.266-4.065-0.123-8.069zM200.96 777.631v84.838c5.222-0.123 12.344-0.292 21.12-0.497v-85.514c-7.050 0.389-14.172 0.758-21.12 1.172zM531.2 768.568c-91.249 0-177.828 1.812-258.56 5.371v86.892c74.629-1.644 192.922-4.076 324.685-6.134v-85.816c-21.407-0.2-43.489-0.312-66.125-0.312zM650.711 853.898c80.123-1.152 163.569-2.109 244.009-2.637v-73.58c-29.036-1.551-121.283-6.067-243.671-8.105l-0.338 84.321zM477.865 610.135h284.16v67.41h-284.16v-67.41zM498.345 630.615v8.105h243.2v-8.105h-243.2zM741.545 657.065v-8.105h-243.2v8.105h243.2zM211.523 601.887c-13.742 0-24.924-11.182-24.924-24.924s11.182-24.924 24.924-24.924 24.924 11.182 24.924 24.924-11.182 24.924-24.924 24.924zM211.523 562.273c-8.1 0-14.684 6.589-14.684 14.684s6.589 14.684 14.684 14.684 14.684-6.589 14.684-14.684-6.589-14.684-14.684-14.684zM618.563 594.877c-13.747 0-24.929-11.182-24.929-24.924s11.187-24.924 24.929-24.924c13.742 0 24.919 11.182 24.919 24.924s-11.182 24.924-24.919 24.924zM618.563 555.264c-8.1 0-14.689 6.589-14.689 14.684s6.589 14.684 14.689 14.684c8.095 0 14.679-6.589 14.679-14.684s-6.584-14.684-14.679-14.684z" />
<glyph unicode="&#xe932;" glyph-name="icon-106" d="M931.835 90.721c-9.713 365.476-18.186 615.542-19.978 667.433l3.343 0.2v113.265l-10.179 0.061c-83.625 0.512-170.819 1.5-254.392 2.703l-0.005 0.63h-42.465c-225.597 3.461-414.5 8.115-417.183 8.187l-10.496 0.261v-113.915l-2.924 0.937c-2.54-7.931-61.471-197.801-4.716-513.695l7.649-175.099 20.46 0.891-7.68 175.79-0.154 1.372c-9.498 52.756-15.621 101.98-19.328 147.528l115.901 47.329 14.797 223.524h-124.785c5.755 40.612 12.288 67.64 15.447 79.37 8.888-0.543 17.879-1.055 26.931-1.551v-0.225l10.46-0.348c41.508-2.176 84.741-3.85 129.434-5.053-9.795-56.602-55.562-365.624 79.514-522.455-79.263 0.445-133.192 2.509-134.093 2.545l-0.404-10.23c0.901-0.036 54.477-2.089 133.325-2.555v-112.66h20.48v112.568c3.456-0.005 6.943-0.010 10.481-0.010 48.097 0 103.219 0.66 160.358 2.647l-0.348 10.23c-64.287-2.227-125.983-2.775-177.981-2.601l1.029 0.942c-139.75 152.812-91.146 469.391-82.017 521.318 51.169-1.28 104.146-1.961 158.879-1.961 22.646 0 44.703 0.118 66.125 0.317v-0.317h53.811l-0.005 1.014c117.289 1.946 206.966 6.164 240.276 7.9 1.818-52.782 10.271-302.408 19.958-666.824l20.475 0.538zM617.805 769.106v85.279c4.132-0.061 8.269-0.123 12.421-0.184l0.343-84.925c-4.219-0.061-8.479-0.118-12.764-0.169zM252.16 775.204l-9.6 0.317v83.625l9.6-0.051v-83.891zM282.609 657.633l-12.508-188.923-97.91-39.982c-6.308 95.012-1.946 172.483 4.818 228.905h105.6zM200.96 777.631v84.838c5.222-0.123 12.344-0.292 21.12-0.497v-85.514c-7.050 0.389-14.172 0.758-21.12 1.172zM531.2 768.568c-91.249 0-177.828 1.812-258.56 5.371v86.892c74.629-1.644 192.922-4.076 324.685-6.134v-85.816c-21.407-0.2-43.489-0.312-66.125-0.312zM650.711 853.898c80.123-1.152 163.569-2.109 244.009-2.637v-73.58c-29.036-1.551-121.283-6.067-243.671-8.105l-0.338 84.321zM476.16 452.116l137.344-73.743 137.431 72.412v217.375h-274.775v-216.044zM496.64 647.68h233.815v-184.54l-116.859-61.568-116.956 62.792v183.316z" />
<glyph unicode="&#xe933;" glyph-name="icon-107" d="M931.835 90.721c-9.713 365.476-18.186 615.542-19.978 667.433l3.343 0.2v113.265l-10.179 0.061c-83.625 0.512-170.819 1.5-254.392 2.703l-0.005 0.63h-42.465c-225.597 3.461-414.5 8.115-417.183 8.187l-10.496 0.261v-113.915l-2.924 0.937c-2.54-7.931-61.471-197.801-4.716-513.695l7.649-175.099 20.46 0.891-7.68 175.79-0.154 1.372c-22.922 127.252-26.501 234.516-22.712 317 3.487-0.072 7.050-0.215 10.45-0.215 70.461 0 121.723 14.566 124.068 15.242l6.712 1.94 6.758 73.206-139.566 5.018c5.949 44.109 13.005 73.231 16.323 85.555 8.888-0.543 17.879-1.055 26.931-1.551v-0.225l10.46-0.348c41.508-2.176 84.741-3.85 129.434-5.053-9.795-56.602-55.562-365.624 79.514-522.455-79.263 0.445-133.192 2.509-134.093 2.545l-0.404-10.23c0.901-0.036 54.477-2.089 133.325-2.555v-112.655h20.48v112.568c3.456-0.005 6.943-0.010 10.481-0.010 48.097 0 103.219 0.66 160.358 2.647l-0.348 10.23c-64.287-2.227-125.983-2.775-177.981-2.601l1.029 0.942c-139.75 152.812-91.146 469.391-82.017 521.318 51.169-1.28 104.146-1.961 158.879-1.961 22.646 0 44.703 0.118 66.125 0.317v-0.317h53.811l-0.005 1.014c117.289 1.946 206.966 6.164 240.276 7.9 1.818-52.782 10.271-302.408 19.958-666.824l20.475 0.538zM617.805 769.106v85.279c4.132-0.061 8.269-0.123 12.421-0.184l0.343-84.925c-4.219-0.061-8.479-0.118-12.764-0.169zM252.16 775.204l-9.6 0.317v83.625l9.6-0.051v-83.891zM296.008 647.219l-3.461-37.499c-16.763-4.040-63.35-13.691-121.016-12.621 1.254 19.799 2.913 37.939 4.792 54.426l119.685-4.306zM200.96 777.631v84.838c5.222-0.123 12.344-0.292 21.12-0.497v-85.514c-7.050 0.389-14.172 0.758-21.12 1.172zM531.2 768.568c-91.249 0-177.828 1.812-258.56 5.371v86.892c74.629-1.644 192.922-4.076 324.685-6.134v-85.816c-21.407-0.2-43.489-0.312-66.125-0.312zM650.711 853.898c80.123-1.152 163.569-2.109 244.009-2.637v-73.58c-29.036-1.551-121.283-6.067-243.671-8.105l-0.338 84.321zM440.32 594.77l5.202-2.939c2.14-1.213 53.448-29.681 134.426-29.681 0.005 0 0 0 0.005 0 50.831 0 102.006 11.274 152.095 33.505l6.083 2.703v66.386h-297.81v-69.975zM460.8 644.265h256.855v-32.532c-45.507-19.313-91.802-29.102-137.708-29.102-61.148 0-104.709 17.669-119.148 24.438v37.197z" />
<glyph unicode="&#xe934;" glyph-name="icon-92" d="M960.64 199.68h20.48c0 84.265-25.81 341.944-27.52 358.917v107.52l-1.096 2.176c-5.197 10.301-17.362 34.437-252.667 45.476-113.613 5.33-225.797 4.966-227.072 4.951-159.314-2.995-354.371-12.16-378.921-38.825-3.031-3.292-3.599-6.554-3.604-8.53v-127.237c-12.088-80.998-31.78-342.779-32.614-353.92l20.424-1.531c0.138 1.859 9.636 128.159 19.461 233.615 10.819 28.923 33.423 84.603 41.569 104.596 12.856-1.894 28.493-4.081 46.52-6.4v-0.22l60.8-7.276v0.323c48.916-5.263 107.254-10.327 170.757-13.425v-305.331h20.48v304.41c20.91-0.86 42.307-1.495 64.061-1.838v-302.572h20.48v302.331c5.606-0.041 11.218-0.067 16.86-0.067 90.086 0 184.581 5.407 273.736 20.183 23.142-31.642 100.019-141.353 145.848-261.791 1.26-22.272 2.017-41.498 2.017-55.537zM756.48 529.485v104.986c55.608 4.285 114.56 10.092 176.64 17.659v-86.477c-55.137-16.942-115.046-28.575-176.64-36.168zM712.387 630.81l23.613 0.456v-101.612l-23.613-2.744v103.9zM473.001 698.24c1.116 0.005 112.727 0.374 225.802-4.925 126.73-5.944 185.293-15.56 212.367-23.199-75.423-8.837-145.961-14.991-211.456-19.067l-7.803-0.148v-0.328c-313.021-18.79-509.041 10.092-569.247 21.059 28.047 8.115 110.602 22.098 350.336 26.609zM225.92 536.177c-6.845 0.794-13.466 1.582-19.84 2.36v99.185l19.84-3.226v-98.319zM105.042 497.398c1.423 12.897 2.801 24.422 4.106 34.115 2.58-0.425 5.637-0.916 9.114-1.459-3.328-8.172-8.049-19.799-13.22-32.655zM110.612 552.028l0.092 101.018c13.798-2.668 38.897-7.060 74.89-11.653v-100.265c-36.301 4.71-62.464 8.832-74.982 10.9zM246.4 634.691c22.001-2.079 46.351-4.024 73.057-5.678l-53.54-49.413 41.559-51.722c-21.642 1.905-42.097 3.937-61.082 6.001v100.813zM335.636 525.542l-41.769 51.978 52.956 48.881-1.039 1.126c43.095-2.212 91.535-3.625 145.28-3.625 60.401 0 127.468 1.792 200.847 6.164v-107.095c-124.969-9.943-252.15-5.586-356.275 2.57zM835.19 520.95c34.202 6.359 67.446 14.203 99.21 23.741 3.456-35.077 13.435-138.378 20.040-226.929-42.081 91.197-95.135 169.477-119.25 203.187zM371.169 610.063c-19.471 0-35.313-15.841-35.313-35.313s15.841-35.313 35.313-35.313 35.313 15.841 35.313 35.313-15.841 35.313-35.313 35.313zM371.169 559.918c-8.177 0-14.833 6.656-14.833 14.833s6.656 14.833 14.833 14.833 14.833-6.656 14.833-14.833-6.656-14.833-14.833-14.833z" />
<glyph unicode="&#xe935;" glyph-name="icon-93" d="M960.64 199.68h20.48c0 84.265-25.81 341.944-27.52 358.917v107.52l-1.096 2.176c-5.197 10.301-17.362 34.437-252.667 45.476-113.613 5.33-225.797 4.966-227.072 4.951-159.314-2.995-354.371-12.16-378.921-38.825-3.031-3.292-3.599-6.554-3.604-8.53v-127.237c-12.088-80.998-31.78-342.779-32.614-353.92l20.424-1.531c0.138 1.859 9.636 128.159 19.461 233.615 10.819 28.923 33.423 84.603 41.569 104.596 12.856-1.894 28.493-4.081 46.52-6.4v-0.22l60.8-7.276v0.323c48.916-5.263 107.254-10.327 170.757-13.425v-305.331h20.48v304.41c20.91-0.86 42.307-1.495 64.061-1.838v-302.572h20.48v302.331c5.606-0.041 11.218-0.067 16.86-0.067 90.086 0 184.581 5.407 273.736 20.183 23.142-31.642 100.019-141.353 145.848-261.791 1.26-22.272 2.017-41.498 2.017-55.537zM756.48 529.485v104.986c55.608 4.285 114.56 10.092 176.64 17.659v-86.477c-55.137-16.942-115.046-28.575-176.64-36.168zM712.387 630.81l23.613 0.456v-101.612l-23.613-2.744v103.9zM473.001 698.24c1.116 0.005 112.727 0.374 225.802-4.925 126.73-5.944 185.293-15.56 212.367-23.199-75.423-8.837-145.961-14.991-211.456-19.067l-7.803-0.148v-0.328c-313.021-18.79-509.041 10.092-569.247 21.059 28.047 8.115 110.602 22.098 350.336 26.609zM225.92 536.177c-6.845 0.794-13.466 1.582-19.84 2.36v99.185l19.84-3.226v-98.319zM105.042 497.398c1.423 12.897 2.801 24.422 4.106 34.115 2.58-0.425 5.637-0.916 9.114-1.459-3.328-8.172-8.049-19.799-13.22-32.655zM110.612 552.028l0.092 101.018c13.798-2.668 38.897-7.060 74.89-11.653v-100.265c-36.301 4.71-62.464 8.832-74.982 10.9zM246.4 634.691c44.713-4.224 99.246-7.895 163.2-9.661v-104.315c-60.677 3.159-116.378 8.079-163.2 13.164v100.813zM430.080 519.721v104.817c19.533-0.399 39.813-0.635 60.979-0.635 60.401 0 127.468 1.792 200.847 6.164v-107.095c-89.206-7.096-179.543-6.912-261.827-3.251zM835.19 520.95c34.202 6.359 67.446 14.203 99.21 23.741 3.456-35.077 13.435-138.378 20.040-226.929-42.081 91.197-95.135 169.477-119.25 203.187zM483.809 610.063c-19.471 0-35.313-15.841-35.313-35.313s15.841-35.313 35.313-35.313 35.313 15.841 35.313 35.313-15.841 35.313-35.313 35.313zM483.809 559.918c-8.177 0-14.833 6.656-14.833 14.833s6.656 14.833 14.833 14.833 14.833-6.656 14.833-14.833-6.656-14.833-14.833-14.833z" />
<glyph unicode="&#xe936;" glyph-name="icon-94" d="M960.64 199.68h20.48c0 84.265-25.81 341.944-27.52 358.917v107.52l-1.096 2.176c-5.197 10.301-17.362 34.437-252.667 45.476-113.613 5.33-225.797 4.966-227.072 4.951-159.314-2.995-354.371-12.16-378.921-38.825-3.031-3.292-3.599-6.554-3.604-8.53v-127.237c-12.088-80.998-31.78-342.779-32.614-353.92l20.424-1.531c0.138 1.859 9.636 128.159 19.461 233.615 10.819 28.923 33.423 84.603 41.569 104.596 12.856-1.894 28.493-4.081 46.52-6.4v-0.22l60.8-7.276v0.323c48.916-5.263 107.254-10.327 170.757-13.425v-305.331h20.48v304.41c20.91-0.86 42.307-1.495 64.061-1.838v-302.572h20.48v302.331c5.606-0.041 11.218-0.067 16.86-0.067 90.086 0 184.581 5.407 273.736 20.183 23.142-31.642 100.019-141.353 145.848-261.791 1.26-22.272 2.017-41.498 2.017-55.537zM756.48 529.485v104.986c55.608 4.285 114.56 10.092 176.64 17.659v-86.477c-55.137-16.942-115.046-28.575-176.64-36.168zM712.387 630.81l23.613 0.456v-101.612l-23.613-2.744v103.9zM473.001 698.24c1.116 0.005 112.727 0.374 225.802-4.925 126.73-5.944 185.293-15.56 212.367-23.199-75.423-8.837-145.961-14.991-211.456-19.067l-7.803-0.148v-0.328c-313.021-18.79-509.041 10.092-569.247 21.059 28.047 8.115 110.602 22.098 350.336 26.609zM225.92 536.177c-6.845 0.794-13.466 1.582-19.84 2.36v99.185l19.84-3.226v-98.319zM105.042 497.398c1.423 12.897 2.801 24.422 4.106 34.115 2.58-0.425 5.637-0.916 9.114-1.459-3.328-8.172-8.049-19.799-13.22-32.655zM110.612 552.028l0.092 101.018c13.798-2.668 38.897-7.060 74.89-11.653v-100.265c-36.301 4.71-62.464 8.832-74.982 10.9zM246.4 634.691c22.001-2.079 46.351-4.024 73.057-5.678l-53.54-49.413 41.559-51.722c-21.642 1.905-42.097 3.937-61.082 6.001v100.813zM335.636 525.542l-41.769 51.978 52.956 48.881-1.039 1.126c43.095-2.212 91.535-3.625 145.28-3.625 60.401 0 127.468 1.792 200.847 6.164v-107.095c-124.969-9.943-252.15-5.586-356.275 2.57zM835.19 520.95c34.202 6.359 67.446 14.203 99.21 23.741 3.456-35.077 13.435-138.378 20.040-226.929-42.081 91.197-95.135 169.477-119.25 203.187zM371.169 610.063c-19.471 0-35.313-15.841-35.313-35.313s15.841-35.313 35.313-35.313 35.313 15.841 35.313 35.313-15.841 35.313-35.313 35.313zM371.169 559.918c-8.177 0-14.833 6.656-14.833 14.833s6.656 14.833 14.833 14.833 14.833-6.656 14.833-14.833-6.656-14.833-14.833-14.833z" />
<glyph unicode="&#xe937;" glyph-name="icon-95" d="M960.64 199.68h20.48c0 84.265-25.81 341.944-27.52 358.917v107.52l-1.096 2.176c-5.197 10.301-17.362 34.437-252.667 45.476-113.613 5.33-225.797 4.966-227.072 4.951-159.314-2.995-354.371-12.16-378.921-38.825-3.031-3.292-3.599-6.554-3.604-8.53v-127.237c-12.088-80.998-31.78-342.779-32.614-353.92l20.424-1.531c0.138 1.859 9.636 128.159 19.461 233.615 10.819 28.923 33.423 84.603 41.569 104.596 12.856-1.894 28.493-4.081 46.52-6.4v-0.22l60.8-7.276v0.323c48.916-5.263 107.254-10.327 170.757-13.425v-305.331h20.48v304.41c20.91-0.86 42.307-1.495 64.061-1.838v-302.572h20.48v302.331c5.606-0.041 11.218-0.067 16.86-0.067 90.086 0 184.581 5.407 273.736 20.183 23.142-31.642 100.019-141.353 145.848-261.791 1.26-22.272 2.017-41.498 2.017-55.537zM756.48 529.485v104.986c55.608 4.285 114.56 10.092 176.64 17.659v-86.477c-55.137-16.942-115.046-28.575-176.64-36.168zM712.387 630.81l23.613 0.456v-101.612l-23.613-2.744v103.9zM473.001 698.24c1.116 0.005 112.727 0.374 225.802-4.925 126.73-5.944 185.293-15.56 212.367-23.199-75.423-8.837-145.961-14.991-211.456-19.067l-7.803-0.148v-0.328c-313.021-18.79-509.041 10.092-569.247 21.059 28.047 8.115 110.602 22.098 350.336 26.609zM225.92 536.177c-6.845 0.794-13.466 1.582-19.84 2.36v99.185l19.84-3.226v-98.319zM105.042 497.398c1.423 12.897 2.801 24.422 4.106 34.115 2.58-0.425 5.637-0.916 9.114-1.459-3.328-8.172-8.049-19.799-13.22-32.655zM110.612 552.028l0.092 101.018c13.798-2.668 38.897-7.060 74.89-11.653v-100.265c-36.301 4.71-62.464 8.832-74.982 10.9zM246.4 634.691c44.713-4.224 99.246-7.895 163.2-9.661v-104.315c-60.677 3.159-116.378 8.079-163.2 13.164v100.813zM430.080 519.721v104.817c19.533-0.399 39.813-0.635 60.979-0.635 60.401 0 127.468 1.792 200.847 6.164v-107.095c-89.206-7.096-179.543-6.912-261.827-3.251zM835.19 520.95c34.202 6.359 67.446 14.203 99.21 23.741 3.456-35.077 13.435-138.378 20.040-226.929-42.081 91.197-95.135 169.477-119.25 203.187z" />
<glyph unicode="&#xe938;" glyph-name="icon-96" d="M960.64 199.68h20.48c0 84.265-25.81 341.944-27.52 358.917v107.52l-1.096 2.176c-5.197 10.301-17.362 34.437-252.667 45.476-113.613 5.33-225.797 4.966-227.072 4.951-159.314-2.995-354.371-12.16-378.921-38.825-3.031-3.292-3.599-6.554-3.604-8.53v-127.237c-12.088-80.998-31.78-342.779-32.614-353.92l20.424-1.531c0.138 1.859 9.636 128.159 19.461 233.615 10.819 28.923 33.423 84.603 41.569 104.596 12.856-1.894 28.493-4.081 46.52-6.4v-0.22l60.8-7.276v0.323c48.916-5.263 107.254-10.327 170.757-13.425v-305.331h20.48v304.41c20.91-0.86 42.307-1.495 64.061-1.838v-302.572h20.48v302.331c5.606-0.041 11.218-0.067 16.86-0.067 90.086 0 184.581 5.407 273.736 20.183 23.142-31.642 100.019-141.353 145.848-261.791 1.26-22.272 2.017-41.498 2.017-55.537zM756.48 529.485v104.986c55.608 4.285 114.56 10.092 176.64 17.659v-86.477c-55.137-16.942-115.046-28.575-176.64-36.168zM712.387 630.81l23.613 0.456v-101.612l-23.613-2.744v103.9zM473.001 698.24c1.116 0.005 112.727 0.374 225.802-4.925 126.73-5.944 185.293-15.56 212.367-23.199-75.423-8.837-145.961-14.991-211.456-19.067l-7.803-0.148v-0.328c-313.021-18.79-509.041 10.092-569.247 21.059 28.047 8.115 110.602 22.098 350.336 26.609zM225.92 536.177c-6.845 0.794-13.466 1.582-19.84 2.36v99.185l19.84-3.226v-98.319zM105.042 497.398c1.423 12.897 2.801 24.422 4.106 34.115 2.58-0.425 5.637-0.916 9.114-1.459-3.328-8.172-8.049-19.799-13.22-32.655zM110.612 552.028l0.092 101.018c13.798-2.668 38.897-7.060 74.89-11.653v-100.265c-36.301 4.71-62.464 8.832-74.982 10.9zM246.4 634.691c22.001-2.079 46.351-4.024 73.057-5.678l-53.54-49.413 41.559-51.722c-21.642 1.905-42.097 3.937-61.082 6.001v100.813zM335.636 525.542l-41.769 51.978 52.956 48.881-1.039 1.126c43.095-2.212 91.535-3.625 145.28-3.625 60.401 0 127.468 1.792 200.847 6.164v-107.095c-124.969-9.943-252.15-5.586-356.275 2.57zM835.19 520.95c34.202 6.359 67.446 14.203 99.21 23.741 3.456-35.077 13.435-138.378 20.040-226.929-42.081 91.197-95.135 169.477-119.25 203.187z" />
<glyph unicode="&#xe939;" glyph-name="icon-89" d="M871.255 721.864v92.145l-1.142 2.212c-8.274 16.010-37.509 38.026-195.251 44.36-84.413 3.389-166.687 0.461-167.219 0.435-293.207-2.417-333.322-28.221-338.637-36.076l-1.756-2.601v-110.152c-29.532-299.156-20.572-659.348-20.48-662.953l20.475 0.532c-0.087 3.292-7.578 304.881 13.783 584.52 12.012 32.415 28.006 56.504 34.872 66.033 8.479-1.234 18.13-2.57 28.908-3.973l0.005-0.2 44.938-5.437 0.005 0.276c1.3-0.138 2.642-0.282 3.963-0.425-3.348-48.809-18.002-270.29-17.249-401.341l20.48 0.118c-0.748 129.797 13.732 349.24 17.157 399.135 8.417-0.824 17.137-1.623 26.122-2.396 0.323-47.473 1.971-269.153 5.366-397.066l20.475 0.538c-3.354 126.182-5.002 343.88-5.35 394.849 22.871-1.761 47.237-3.287 72.745-4.403 0.282-49.050 2.437-312.32 16.302-437.074l0.189-1.71 15.944-33.567c-0.118-16.015-0.758-109.153 0.020-146.427l20.48 0.44c-0.845 40.346-0.005 147.108 0 148.183l0.015 2.35-16.481 34.698c-2.893 26.506-5.263 59.182-7.209 94.638 22.272 7.414 52.557 23.368 53.996 24.136l5.13 2.708 0.307 5.801c2.243 42.173 0.538 254.239 0.108 303.846 17.731 0.005 35.779 0.287 54.016 0.84 1.459-47.642 8.356-276.91 9.108-389.647l20.48 0.138c-0.753 113.044-7.67 342.799-9.124 390.252 10.419 0.44 20.879 0.947 31.391 1.603 4.833-50.504 27.085-285.286 32.358-383.933l20.449 1.091c-5.274 98.668-27.412 332.472-32.374 384.246 6.308 0.476 12.636 1.009 18.959 1.572l-0.010-0.374 51.732 5.658v0.287c10.035 1.28 20.055 2.698 30.049 4.229 19.656-27.269 85.499-121.298 123.407-207.98 6.159-109.507 9.733-254.659 3.676-429.327l20.47-0.712c13.952 402.289-23.066 649.585-25.6 665.907zM719.073 710.328c-0.184 19.036-0.625 56.786-1.388 79.078 42.194 3.021 86.589 7.076 133.089 12.375v-66.028c-42.624-11.356-86.984-19.615-131.702-25.426zM453.908 699.643v83.016c19.231-0.461 39.357-0.722 60.421-0.722 46.264 0 96.952 1.244 151.726 4.224 0.722-17.613 2.043-54.339 1.869-81.434-73.964-6.682-147.395-7.383-214.016-5.084zM264.678 714.465c-0.758 32.753 1.055 64.635 2.186 80.532l5.729-0.66c-1.229-26.189-2.268-62.336-2.749-80.492-1.751 0.205-3.456 0.415-5.166 0.62zM187.735 806.717c11.663-2.181 31.406-5.54 58.778-9.093-1.132-15.38-2.995-46.976-2.36-80.558-26.655 3.512-46.157 6.62-56.458 8.351l0.041 81.3zM293.002 792.31c38.134-3.825 85.12-7.276 140.426-9.068v-82.79c-54.088 2.401-103.009 6.651-143.16 11.059 0.456 17.157 1.495 53.99 2.734 80.799zM688.415 706.719c0.113 27.668-1.193 63.386-1.905 80.589l10.732 0.681c0.758-22.866 1.203-62.285 1.382-80.148-3.405-0.384-6.81-0.758-10.209-1.121zM508.109 840.54c111.462 4.081 266.143-0.369 322.852-20.362-315.156-34.191-529.070-10.834-612.306 2.058 38.835 7.619 120.443 16.911 289.454 18.304zM185.882 691.738c0.404 4.352 0.814 8.689 1.234 13.015 1.864-0.307 3.973-0.65 6.262-1.019-2.263-3.425-4.797-7.439-7.496-11.996zM501.955 381.092c-8.489-4.311-25.836-12.836-40.33-18.243-6.18 126.418-7.444 278.548-7.67 316.349 15.596-0.532 31.57-0.896 47.826-1.065 0.404-46.408 1.971-244.721 0.174-297.042zM771.835 697.661c27.003 4.69 53.683 10.368 79.77 17.172 2.427-16.43 10.726-76.692 17.649-174.479-34.34 65.91-77.066 128.573-97.418 157.307z" />
<glyph unicode="&#xe93a;" glyph-name="icon-90" d="M871.255 721.864v92.145l-1.142 2.212c-8.274 16.010-37.509 38.026-195.251 44.36-84.413 3.389-166.687 0.461-167.219 0.435-293.207-2.417-333.322-28.221-338.637-36.076l-1.756-2.601v-110.152c-29.532-299.156-20.572-659.348-20.48-662.953l20.475 0.532c-0.087 3.292-7.578 304.881 13.783 584.52 12.012 32.415 28.006 56.504 34.872 66.033 8.479-1.234 18.13-2.57 28.908-3.973l0.005-0.2 44.938-5.437 0.005 0.276c15.56-1.69 32.425-3.354 50.34-4.9-0.292-50.836-1.331-297.999 5.524-396.242l20.429 1.428c-6.738 96.548-5.786 339.092-5.478 393.139 22.917-1.766 47.334-3.297 72.893-4.413 0.282-49.050 2.437-312.32 16.302-437.074l0.189-1.71 15.944-33.567c-0.118-16.015-0.758-109.153 0.020-146.427l20.48 0.435c-0.845 40.346-0.005 147.108 0 148.183l0.015 2.35-16.481 34.698c-2.893 26.506-5.263 59.182-7.209 94.638 22.272 7.414 52.557 23.368 53.996 24.136l5.13 2.708 0.307 5.801c2.243 42.173 0.538 254.239 0.108 303.846 18.627 0.005 37.596 0.312 56.765 0.916 1.812-63.642 8.305-299.679 7.209-388.255l20.48-0.251c1.096 89.032-5.417 325.832-7.224 389.279 22.502 0.988 45.23 2.442 68.035 4.465l-0.010-0.374 51.732 5.658v0.287c10.035 1.28 20.055 2.698 30.049 4.229 19.656-27.269 85.499-121.298 123.407-207.98 6.159-109.507 9.733-254.659 3.676-429.327l20.47-0.712c13.952 402.294-23.066 649.59-25.6 665.912zM719.073 710.328c-0.184 19.036-0.625 56.786-1.388 79.078 42.194 3.021 86.589 7.076 133.089 12.375v-66.028c-42.624-11.356-86.984-19.615-131.702-25.426zM453.908 699.643v83.016c19.231-0.461 39.357-0.722 60.421-0.722 46.264 0 96.952 1.244 151.726 4.224 0.722-17.613 2.043-54.339 1.869-81.434-73.964-6.682-147.395-7.383-214.016-5.084zM264.678 714.465c-0.758 32.753 1.055 64.635 2.186 80.532l5.729-0.66c-1.229-26.189-2.268-62.336-2.749-80.492-1.751 0.205-3.456 0.415-5.166 0.62zM187.735 806.717c11.663-2.181 31.406-5.54 58.778-9.093-1.132-15.38-2.995-46.976-2.36-80.558-26.655 3.512-46.157 6.62-56.458 8.351l0.041 81.3zM293.002 792.31c38.134-3.825 85.12-7.276 140.426-9.068v-82.79c-54.088 2.401-103.009 6.651-143.16 11.059 0.456 17.157 1.495 53.99 2.734 80.799zM688.415 706.719c0.113 27.668-1.193 63.386-1.905 80.589l10.732 0.681c0.758-22.866 1.203-62.285 1.382-80.148-3.405-0.384-6.81-0.758-10.209-1.121zM508.109 840.54c111.462 4.081 266.143-0.369 322.852-20.362-315.156-34.191-529.070-10.834-612.306 2.058 38.835 7.619 120.443 16.911 289.454 18.304zM185.882 691.738c0.404 4.352 0.814 8.689 1.234 13.015 1.864-0.307 3.973-0.65 6.262-1.019-2.263-3.425-4.797-7.439-7.496-11.996zM501.955 381.092c-8.489-4.311-25.836-12.836-40.33-18.243-6.18 126.418-7.444 278.548-7.67 316.349 15.596-0.532 31.57-0.896 47.826-1.065 0.404-46.408 1.971-244.721 0.174-297.042zM771.835 697.661c27.003 4.69 53.683 10.368 79.77 17.172 2.427-16.43 10.726-76.692 17.649-174.479-34.34 65.91-77.066 128.573-97.418 157.307z" />
<glyph unicode="&#xe93b;" glyph-name="icon-91" d="M871.255 721.864v92.145l-1.142 2.212c-8.274 16.010-37.509 38.026-195.251 44.36-84.413 3.389-166.687 0.461-167.219 0.435-293.207-2.417-333.322-28.221-338.637-36.076l-1.756-2.601v-110.152c-29.532-299.156-20.572-659.348-20.48-662.953l20.475 0.532c-0.087 3.292-7.578 304.881 13.783 584.52 12.012 32.415 28.006 56.504 34.872 66.033 8.479-1.234 18.13-2.57 28.908-3.973l0.005-0.2 44.938-5.437 0.005 0.276c1.3-0.138 2.642-0.282 3.963-0.425-3.348-48.809-18.002-270.29-17.249-401.341l20.48 0.118c-0.748 129.797 13.732 349.24 17.157 399.135 8.417-0.824 17.137-1.623 26.122-2.396 0.323-47.473 1.971-269.153 5.366-397.066l20.475 0.538c-3.354 126.182-5.002 343.88-5.35 394.849 22.871-1.761 47.237-3.287 72.745-4.403 0.282-49.050 2.437-312.32 16.302-437.074l0.189-1.71 15.944-33.567c-0.118-16.015-0.758-109.153 0.020-146.427l20.48 0.44c-0.845 40.346-0.005 147.108 0 148.183l0.015 2.35-16.481 34.698c-2.893 26.506-5.263 59.182-7.209 94.638 22.272 7.414 52.557 23.368 53.996 24.136l5.13 2.708 0.307 5.801c2.243 42.173 0.538 254.239 0.108 303.846 17.731 0.005 35.779 0.287 54.016 0.84 1.459-47.642 8.356-276.91 9.108-389.647l20.48 0.138c-0.753 113.044-7.67 342.799-9.124 390.252 10.419 0.44 20.879 0.947 31.391 1.603 4.833-50.504 27.085-285.286 32.358-383.933l20.449 1.091c-5.274 98.668-27.412 332.472-32.374 384.246 6.308 0.476 12.636 1.009 18.959 1.572l-0.010-0.374 51.732 5.658v0.287c10.035 1.28 20.055 2.698 30.049 4.229 19.656-27.269 85.499-121.298 123.407-207.98 6.159-109.507 9.733-254.659 3.676-429.327l20.47-0.712c13.952 402.289-23.066 649.585-25.6 665.907zM719.073 710.328c-0.184 19.036-0.625 56.786-1.388 79.078 42.194 3.021 86.589 7.076 133.089 12.375v-66.028c-42.624-11.356-86.984-19.615-131.702-25.426zM453.908 699.643v83.016c19.231-0.461 39.357-0.722 60.421-0.722 46.264 0 96.952 1.244 151.726 4.224 0.722-17.613 2.043-54.339 1.869-81.434-73.964-6.682-147.395-7.383-214.016-5.084zM264.678 714.465c-0.758 32.753 1.055 64.635 2.186 80.532l5.729-0.66c-1.229-26.189-2.268-62.336-2.749-80.492-1.751 0.205-3.456 0.415-5.166 0.62zM187.735 806.717c11.663-2.181 31.406-5.54 58.778-9.093-1.132-15.38-2.995-46.976-2.36-80.558-26.655 3.512-46.157 6.62-56.458 8.351l0.041 81.3zM293.002 792.31c38.134-3.825 85.12-7.276 140.426-9.068v-82.79c-54.088 2.401-103.009 6.651-143.16 11.059 0.456 17.157 1.495 53.99 2.734 80.799zM688.415 706.719c0.113 27.668-1.193 63.386-1.905 80.589l10.732 0.681c0.758-22.866 1.203-62.285 1.382-80.148-3.405-0.384-6.81-0.758-10.209-1.121zM508.109 840.54c111.462 4.081 266.143-0.369 322.852-20.362-315.156-34.191-529.070-10.834-612.306 2.058 38.835 7.619 120.443 16.911 289.454 18.304zM185.882 691.738c0.404 4.352 0.814 8.689 1.234 13.015 1.864-0.307 3.973-0.65 6.262-1.019-2.263-3.425-4.797-7.439-7.496-11.996zM501.955 381.092c-8.489-4.311-25.836-12.836-40.33-18.243-6.18 126.418-7.444 278.548-7.67 316.349 15.596-0.532 31.57-0.896 47.826-1.065 0.404-46.408 1.971-244.721 0.174-297.042zM771.835 697.661c27.003 4.69 53.683 10.368 79.77 17.172 2.427-16.43 10.726-76.692 17.649-174.479-34.34 65.91-77.066 128.573-97.418 157.307z" />
<glyph unicode="&#xe93c;" glyph-name="icon-86" d="M645.734 857.83v48.102l-8.033 1.772c-2.499 0.553-62.198 13.512-141.655 13.512-46.776 0-90.619-4.552-130.309-13.527l-7.982-1.807v-50.708c-3.19-8.817-15.544-46.495-15.442-100.28l21.478-738.883 3.169-2.918c0.609-0.563 15.155-13.732 38.728-13.732 16.594 0 33.362 6.369 49.828 18.939l3.671 2.801 42.757 594.237 23.501-596.746 0.169-4.403 3.323-2.898c0.614-0.538 15.406-13.23 38.257-13.23 16.317 0 32.425 6.292 47.882 18.693l3.569 2.867 39.286 726.932c0.036 3.2 0.655 77.189-12.196 111.278zM599.347 859.443v21.75c8.612 1.167 17.254 2.54 25.912 4.132v-21.069c-8.832-1.797-17.469-3.4-25.912-4.813zM505.047 829.42c6.277 0.184 12.774 0.486 19.425 0.876v-107.745c-2.749-1.797-9.211-5.151-20.198-6.666-0.046 43.756 0.502 92.436 0.773 113.536zM466.591 850.176v26.107c12.861-0.645 26.568-1.044 40.893-1.044 20.48 0 42.235 0.824 64.548 2.842v-22.687c-40.632-5.217-76.083-6.236-105.441-5.217zM378.235 885.489c6.323-1.039 14.884-2.335 25.298-3.651v-25.708c-11.331 1.838-19.855 3.707-25.298 5.043v24.315zM413.768 854.595v26.010c1.966-0.225 4.004-0.445 6.072-0.666v-26.143c-2.094 0.261-4.101 0.527-6.072 0.799zM430.080 878.915c5.115-0.476 10.465-0.932 16.031-1.352v-26.307c-5.642 0.404-10.988 0.87-16.031 1.388v26.271zM582.277 856.791v22.333c2.273 0.241 4.547 0.471 6.83 0.742v-22.088c-2.309-0.353-4.557-0.66-6.83-0.988zM561.162 897.802c-43.899-3.282-85.402-1.889-118.472 0.753 17.265 1.423 35.052 2.186 53.356 2.186 23.793 0 45.875-1.234 65.116-2.939zM482.074 623.836l-0.092-0.507-42.552-591.406c-8.612-5.975-17.096-9.743-25.359-11.279l16.010 619.863-10.24 0.266-16.031-620.841c-9.252 0.404-16.113 3.661-19.82 5.965l-21.202 729.324c-0.077 40.448 7.557 71.429 11.858 85.683 17.055-4.204 55.603-11.786 111.754-11.786 2.724 0 5.596 0.072 8.397 0.108-0.42-32.906-1.485-130.724-0.020-175.232-4.731-3.328-9.431-11.366-12.703-30.157zM637.466 747.218l-38.769-717.204c-6.518-4.705-13.056-7.972-19.543-9.779l3.123 620.38-10.24 0.051-3.128-622.039c-0.568-0.026-1.142-0.082-1.71-0.082-9.805 0-17.413 3.523-21.489 5.939l-23.475 596.076-0.148 1.413c-2.99 16.609-6.615 31.621-17.116 33.915-0.404 13.164-0.604 30.674-0.666 49.705 19.676 2.412 28.436 10.332 28.805 10.68l1.603 1.516v113.157c28.303 2.084 59.771 6.205 93.972 13.138 9.298-32.993 8.776-96.579 8.781-96.865zM272.026 418.785h-173.041v-34.135h173.041v-50.775l69.284 69.284-69.284 68.956zM721.229 421.34v50.775l-69.284-69.284 69.284-68.956v53.33h173.041v34.135z" />
<glyph unicode="&#xe93d;" glyph-name="icon-87" d="M659.63 857.917v48.102l-8.136 1.71c-2.621 0.548-65.172 13.491-148.46 13.491-49.024 0-94.966-4.541-136.55-13.501l-8.084-1.741v-50.514c-3.871-9.262-17.751-46.449-16.21-100.48l15.483-737.172 5.13-2.862c0.937-0.527 23.301-12.795 52.623-12.795 21.12 0 40.422 6.252 57.375 18.58l3.973 2.883 28.856 604.052 17.618-607.355 4.009-2.959c1.029-0.758 25.549-18.57 57.748-18.57 0 0 0 0 0.005 0 20.255 0 38.943 6.932 55.537 20.613l3.538 2.913 28.344 724.234c0.036 3.2 0.686 77.174-12.8 111.37zM611.2 881.172c9.288 1.198 18.611 2.616 27.95 4.265v-21.105c-9.523-1.848-18.847-3.497-27.95-4.941v21.78zM593.28 879.104c2.56 0.261 5.11 0.512 7.68 0.804v-22.103c-2.591-0.379-5.125-0.707-7.68-1.055v22.354zM503.035 900.741c24.991 0 48.179-1.234 68.383-2.939-46.1-3.277-89.677-1.889-124.411 0.753 18.135 1.423 36.813 2.186 56.028 2.186zM433.546 878.935c5.596-0.502 11.469-0.978 17.587-1.408v-26.312c-6.195 0.42-12.063 0.906-17.587 1.449v26.271zM416.425 880.635c2.227-0.241 4.531-0.481 6.881-0.722v-26.153c-2.371 0.282-4.659 0.563-6.881 0.855v26.020zM378.88 885.581c6.712-1.060 15.954-2.401 27.305-3.768v-25.733c-12.324 1.894-21.519 3.825-27.305 5.187v24.315zM501.396 672.123c-5.453-2.381-11.284-9.964-15.585-32.236l-0.138-0.722-28.882-604.58c-12.022-7.69-25.452-11.668-39.992-11.909l16.748 617.82-10.235 0.276-16.742-617.641c-12.483 1.27-22.856 4.864-28.677 7.322l-15.227 725.038c-1.172 41.206 7.444 71.931 12.221 85.617 17.28-4.132 58.015-11.996 118.016-11.996 2.944 0 6.052 0.072 9.093 0.108-0.369-28.539-1.219-105.938-0.599-157.097zM471.613 850.191v26.117c13.645-0.666 28.201-1.070 43.423-1.070 21.576 0 44.493 0.835 68.004 2.877v-22.692c-42.977-5.274-80.44-6.282-111.427-5.233zM512.236 829.409c6.738 0.189 13.732 0.502 20.884 0.901v-107.674c-2.975-1.843-9.958-5.289-21.704-6.789 0.010 44.38 0.553 92.59 0.819 113.562zM651.96 747.064l-27.976-714.609c-10.476-7.706-21.873-12.052-33.987-12.984l3.282 621.143-10.24 0.056-3.282-621.133c-16.323 1.265-29.921 7.987-36.347 11.766l-17.587 606.428-0.118 1.27c-2.365 15.304-5.325 29.235-14.070 33.065-0.123 10.281-0.189 21.637-0.215 33.464 20.736 2.355 29.855 10.322 30.244 10.67l1.695 1.526v113.208c29.875 2.084 63.119 6.236 99.292 13.245 8.1-27.382 9.508-78.316 9.308-97.116z" />
<glyph unicode="&#xe93e;" glyph-name="icon-88" d="M645.734 857.83v48.102l-8.033 1.772c-2.499 0.553-62.198 13.512-141.655 13.512-46.776 0-90.619-4.552-130.309-13.527l-7.982-1.807v-50.708c-3.19-8.817-15.544-46.495-15.442-100.28l21.478-738.883 3.169-2.918c0.609-0.563 15.155-13.732 38.728-13.732 16.594 0 33.362 6.369 49.828 18.939l3.671 2.801 42.757 594.237 23.501-596.746 0.169-4.403 3.323-2.898c0.614-0.538 15.406-13.23 38.257-13.23 16.317 0 32.425 6.292 47.882 18.693l3.569 2.867 39.286 726.932c0.036 3.2 0.655 77.189-12.196 111.278zM599.347 859.443v21.75c8.612 1.167 17.254 2.54 25.912 4.132v-21.069c-8.832-1.797-17.469-3.4-25.912-4.813zM505.047 829.42c6.277 0.184 12.774 0.486 19.425 0.876v-107.745c-2.749-1.797-9.211-5.151-20.198-6.666-0.046 43.756 0.502 92.436 0.773 113.536zM466.591 850.176v26.107c12.861-0.645 26.568-1.044 40.893-1.044 20.48 0 42.235 0.824 64.548 2.842v-22.687c-40.632-5.217-76.083-6.236-105.441-5.217zM378.235 885.489c6.323-1.039 14.884-2.335 25.298-3.651v-25.708c-11.331 1.838-19.855 3.707-25.298 5.043v24.315zM413.768 854.595v26.010c1.966-0.225 4.004-0.445 6.072-0.666v-26.143c-2.094 0.261-4.101 0.527-6.072 0.799zM430.080 878.915c5.115-0.476 10.465-0.932 16.031-1.352v-26.307c-5.642 0.404-10.988 0.87-16.031 1.388v26.271zM582.277 856.791v22.333c2.273 0.241 4.547 0.471 6.83 0.742v-22.088c-2.309-0.353-4.557-0.66-6.83-0.988zM561.162 897.802c-43.899-3.282-85.402-1.889-118.472 0.753 17.265 1.423 35.052 2.186 53.356 2.186 23.793 0 45.875-1.234 65.116-2.939zM482.074 623.836l-0.092-0.507-42.552-591.406c-8.612-5.975-17.096-9.743-25.359-11.279l16.010 619.863-10.24 0.266-16.031-620.841c-9.252 0.404-16.113 3.661-19.82 5.965l-21.202 729.324c-0.077 40.448 7.557 71.429 11.858 85.683 17.055-4.204 55.603-11.786 111.754-11.786 2.724 0 5.596 0.072 8.397 0.108-0.42-32.906-1.485-130.724-0.020-175.232-4.731-3.328-9.431-11.366-12.703-30.157zM637.466 747.218l-38.769-717.204c-6.518-4.705-13.056-7.972-19.543-9.779l3.123 620.38-10.24 0.051-3.128-622.039c-0.568-0.026-1.142-0.082-1.71-0.082-9.805 0-17.413 3.523-21.489 5.939l-23.475 596.076-0.148 1.413c-2.99 16.609-6.615 31.621-17.116 33.915-0.404 13.164-0.604 30.674-0.666 49.705 19.676 2.412 28.436 10.332 28.805 10.68l1.603 1.516v113.157c28.303 2.084 59.771 6.205 93.972 13.138 9.298-32.993 8.776-96.579 8.781-96.865zM272.026 418.785h-173.041v-34.135h173.041v-50.775l69.284 69.284-69.284 68.956zM721.229 421.34v50.775l-69.284-69.284 69.284-68.956v53.33h173.041v34.135z" />
</font>
</defs>
</svg>
